<?xml version="1.0" encoding="UTF-8" standalone="no"?> <!-- Created with Vectornator for iOS (http://vectornator.io/) --><!DOCTYPE svg PUBLIC "-//W3C//DTD SVG 1.1//EN" "http://www.w3.org/Graphics/SVG/1.1/DTD/svg11.dtd">
<svg height="100%" style="fill-rule:nonzero;clip-rule:evenodd;stroke-linecap:round;stroke-linejoin:round;" xmlns:xlink="http://www.w3.org/1999/xlink" xmlns="http://www.w3.org/2000/svg" xml:space="preserve" width="100%" xmlns:vectornator="http://vectornator.io" version="1.1" viewBox="0 0 1600 800">
<metadata>
<vectornator:setting key="DimensionsVisible" value="1"/>
<vectornator:setting key="PencilOnly" value="1"/>
<vectornator:setting key="SnapToPoints" value="0"/>
<vectornator:setting key="OutlineMode" value="0"/>
<vectornator:setting key="CMYKEnabledKey" value="0"/>
<vectornator:setting key="RulersVisible" value="1"/>
<vectornator:setting key="SnapToEdges" value="0"/>
<vectornator:setting key="GuidesVisible" value="1"/>
<vectornator:setting key="DisplayWhiteBackground" value="0"/>
<vectornator:setting key="doHistoryDisabled" value="0"/>
<vectornator:setting key="SnapToGuides" value="1"/>
<vectornator:setting key="TimeLapseWatermarkDisabled" value="0"/>
<vectornator:setting key="Units" value="Points"/>
<vectornator:setting key="DynamicGuides" value="0"/>
<vectornator:setting key="IsolateActiveLayer" value="0"/>
<vectornator:setting key="SnapToGrid" value="0"/>
</metadata>
<defs/>
<g id="LogoOutline copy" vectornator:layerName="LogoOutline copy">
<path d="M667.826+191.865C649.172+191.865+635.184+196.47+625.857+205.678C616.899+214.522+612.366+227.668+612.014+244.897L640.826+244.897C641.395+237.47+643.611+231.623+647.701+227.584C652.454+222.891+659.29+220.553+668.201+220.553L937.67+220.553C946.462+220.553+953.264+222.891+958.076+227.584C962.217+231.623+964.467+237.471+965.045+244.897L993.857+244.897C993.503+227.668+988.941+214.522+979.982+205.678C970.655+196.47+954.251+182.921+935.598+182.921L667.826+191.865Z" opacity="1" fill="#ff7555"/>
<path d="M938.045+618.344C956.699+618.344+970.687+613.74+980.014+604.531C988.972+595.687+993.505+582.541+993.857+565.313L965.045+565.313C964.476+572.739+962.26+578.586+958.17+582.625C953.417+587.318+946.581+589.656+937.67+589.656L668.201+589.656C659.409+589.656+652.607+587.318+647.795+582.625C643.654+578.586+641.404+572.738+640.826+565.313L612.014+565.313C612.368+582.541+616.93+595.687+625.889+604.531C635.216+613.74+653.192+631.266+671.846+631.266L938.045+618.344Z" opacity="1" fill="#ff7555"/>
<path d="M651.633+164.096L954.434+164.096C953.127+156.016+950.335+149.808+946.057+145.471C941.78+141.135+935.186+138.966+926.275+138.966L679.793+138.966C670.881+138.966+664.287+141.135+660.01+145.471C655.733+149.808+652.94+156.016+651.633+164.096Z" opacity="0" fill="#ff7555"/>
<path d="M686.565+114.728L919.502+114.728C919.027+107.243+916.621+101.539+912.284+97.6185C907.947+93.6976+901.68+91.7372+893.482+91.7372L712.586+91.7372C704.387+91.7372+698.12+93.6976+693.783+97.6185C689.446+101.539+687.04+107.243+686.565+114.728Z" opacity="0" fill="#ff7555"/>
</g>
<g id="LogoOutline copy copy" vectornator:layerName="LogoOutline copy copy" visibility="hidden">
<path d="M584.164+246.259C568.077+246.259+556.014+250.863+547.971+260.072C539.927+269.28+535.924+283.024+535.924+301.322L535.924+490.759C535.924+509.175+539.927+522.988+547.971+532.197C556.014+541.405+568.077+546.009+584.164+546.009L817.167+546.009C833.254+546.009+845.317+541.37+853.36+532.103C861.403+522.835+865.433+509.057+865.433+490.759L865.433+301.322C865.433+283.024+861.403+269.28+853.36+260.072C845.317+250.863+833.254+246.259+817.167+246.259L584.164+246.259ZM584.487+274.947L816.871+274.947C824.453+274.947+830.319+277.285+834.469+281.978C838.618+286.671+840.694+293.648+840.694+302.915L840.694+489.165C840.694+498.433+838.618+505.444+834.469+510.197C830.319+514.949+824.453+517.322+816.871+517.322L584.487+517.322C576.802+517.322+570.907+514.949+566.808+510.197C562.71+505.444+560.664+498.433+560.664+489.165L560.664+302.915C560.664+293.648+562.71+286.671+566.808+281.978C570.907+277.285+576.802+274.947+584.487+274.947Z" opacity="1" fill="#ff7555"/>
<path d="M635.036+489.308C631.766+485.05+630.526+479.634+631.668+474.601C635.143+474.435+638.514+472.98+640.781+470.668C632.915+471.013+625.923+463.658+627.734+456.944C630.726+454.939+634.19+453.478+637.845+452.678C640.736+415.412+643.603+377.709+636.203+340.924C633.467+327.322+629.404+312.969+635.006+300.059C635.636+298.607+637.232+296.911+638.782+297.665C650.949+303.581+666.987+302.742+678.263+295.599C682.362+298.198+682.581+304.3+678.677+307.12C706.982+313.462+736.094+317.035+765.299+317.752C767.292+324.993+766.335+332.829+762.64+339.537C749.05+338.593+735.461+337.65+721.872+336.706C733.766+339.225+745.659+341.744+757.553+344.262C760.363+344.858+763.154+348.72+760.273+348.934C735.745+345.478+711.218+342.023+686.69+338.567C683.756+338.154+680.2+337.94+678.38+339.997C677.357+341.152+677.22+342.711+677.129+344.171C675.007+378.236+675.971+412.448+680.008+446.38C680.175+447.78+680.425+449.317+681.636+450.241C682.87+451.183+684.683+451.171+686.318+451.101C695.329+450.715+704.861+449.95+712.14+445.282C719.42+440.614+723.012+430.664+717.189+424.628C709.285+424.238+701.382+423.849+693.479+423.459C693.746+413.149+694.014+402.84+694.281+392.53C714.874+391.413+735.592+392.091+756.032+394.55C757.652+394.745+759.406+395.01+760.513+396.065C761.724+397.218+761.786+398.946+761.781+400.513C761.747+409.959+761.713+419.405+761.679+428.85C758.984+429.52+756.29+430.19+753.595+430.86C753.682+445.002+758.496+459.096+767.289+470.956C757.938+480.788+741.127+484.542+727.544+479.832C712.457+474.6+694.423+476.482+681.162+484.671C676.612+487.481+670.715+487.811+665.154+488.044C655.115+488.466+645.075+488.887+635.036+489.308M718.721+398.381C713.986+397.852+709.212+397.586+704.439+397.585C702.101+397.584+698.805+399.23+700.284+400.816C700.778+401.346+701.626+401.479+702.4+401.576C708.224+402.308+715.328+402.592+718.721+398.381Z" fill="#ff7555" opacity="1" vectornator:blendMode="Lighten"/>
<path d="M559.453+228.726L841.905+228.726C840.686+219.962+838.081+213.228+834.091+208.524C830.101+203.819+823.95+201.467+815.638+201.467L585.72+201.467C577.407+201.467+571.256+203.819+567.266+208.524C563.276+213.228+560.672+219.962+559.453+228.726Z" opacity="0" fill="#ff7555"/>
<path d="M583.401+184.066L817.957+184.066C817.478+175.365+815.055+168.736+810.689+164.178C806.322+159.621+800.011+157.342+791.755+157.342L609.602+157.342C601.347+157.342+595.036+159.621+590.669+164.178C586.302+168.736+583.879+175.365+583.401+184.066Z" opacity="0" fill="#ff7555"/>
</g>
<g id="Text Only copy" vectornator:layerName="Text Only copy">
<path d="M763.222+574.174C761.971+575.604+761.842+577.667+761.775+579.566C761.441+589.064+761.106+598.562+760.772+608.06C582.669+608.061+404.566+608.062+226.463+608.062C225.05+580.75+225.029+553.365+226.402+526.051C233.25+526.051+240.098+526.052+246.946+526.053C247.424+546.72+247.901+567.388+248.379+588.055C411.917+588.062+575.454+588.068+738.991+588.075C742.011+567.512+742.894+546.636+741.621+525.892C748.289+526.217+754.957+526.542+761.625+526.867C761.599+532.904+761.573+538.94+761.548+544.977C761.54+546.85+761.591+548.896+762.796+550.331C764.311+552.135+766.997+552.251+769.352+552.225C783.494+552.064+797.636+551.903+811.778+551.743C813.873+543.743+814.45+535.349+813.467+527.138C819.833+524.53+827.214+524.507+833.595+527.073C833.597+541.869+833.598+556.665+833.599+571.461C812.308+571.718+791.016+571.975+769.724+572.231C767.39+572.26+764.76+572.417+763.222+574.174Z" opacity="0" fill="#000000"/>
<path d="M740.044+95.5672C738.582+94.1396+736.314+94.0529+734.271+94.053C572.252+94.057+410.234+94.061+248.215+94.065C248.225+107.696+248.235+121.328+248.246+134.959C248.25+140.783+248.166+146.94+245.145+151.919C242.123+156.897+235.04+159.893+230.277+156.541C226.126+153.62+225.701+147.737+225.673+142.661C225.567+122.986+225.461+103.311+225.355+83.6354C225.328+78.6166+226.899+71.8713+231.918+71.8952C251.946+71.9905+271.974+72.0858+292.002+72.1812C294.049+72.1909+296.307+72.1242+297.82+70.7451C299.517+69.1988+299.633+66.6134+299.628+64.3175C299.583+42.9169+299.539+21.5163+299.494+0.115674C474.512+0.077118+649.53+0.038562+824.548+6e-06C827.508-0.000646+830.93+0.220345+832.675+2.61186C833.848+4.21905+833.891+6.35904+833.888+8.34863C833.802+57.5149+833.717+106.681+833.632+155.847C827.75+160.319+818.606+156.331+815.066+149.846C811.526+143.361+811.949+135.529+812.381+128.154C814.449+92.8488+814.536+57.4282+812.644+22.1136C648.539+22.064+484.435+22.0143+320.331+21.9647C319.011+38.6321+319.081+55.4094+320.539+72.0652C465.226+72.0616+609.912+72.0579+754.599+72.0543C756.478+72.0543+758.547+72.1237+759.937+73.3883C761.505+74.815+761.616+77.2016+761.615+79.3216C761.609+104.572+761.602+129.823+761.596+155.074C755.044+156.619+748.13+156.609+741.583+155.045C741.604+137.198+741.625+119.351+741.646+101.504C741.648+99.3953+741.553+97.0407+740.044+95.5672Z" opacity="0" fill="#000000"/>
<path d="M518.631+388.216C508.914+389.342+498.954+388.315+489.672+385.229C486.387+384.136+484.514+388.93+484.475+392.393C484.352+403.543+485.253+414.704+487.163+425.69C509.343+424.709+531.523+423.728+553.704+422.747C554.945+425.259+555.168+428.258+554.31+430.926C548.154+428.973+541.032+430.429+536.136+434.64C542.869+432.217+550.97+433.847+556.014+438.922C561.057+443.998+562.595+452.337+559.405+458.741C536.353+455.424+513.006+454.167+489.732+454.99C489.67+459.083+485.906+462.358+481.916+463.273C477.927+464.188+473.77+463.302+469.774+462.417C469.008+460.577+468.242+458.737+467.476+456.898C463.38+462.723+454.539+464.531+448.484+460.782C442.43+457.034+440.107+448.314+443.495+442.05C446.569+441.35+449.643+440.65+452.717+439.95C450.621+437.247+446.779+436.043+443.515+437.067C442.505+432.69+442.251+428.139+442.768+423.677C447.558+425.206+450.415+418.459+450.878+413.452C451.349+408.355+451.821+403.258+452.292+398.16C452.561+395.255+452.797+392.167+451.461+389.573C450.125+386.98+446.58+385.308+444.186+386.975C441.365+375.825+439.778+361.35+449.576+355.327C451.485+354.153+451.804+351.552+451.858+349.312C452.132+337.763+450.691+326.176+447.595+315.047C445.166+306.316+443.557+297.357+442.794+288.326C442.69+287.087+442.619+285.763+443.23+284.68C444.082+283.171+445.947+282.625+447.629+282.211C461.053+278.911+474.477+275.611+487.9+272.311C488.403+276.757+487.91+281.313+486.467+285.549C511.516+287.218+536.651+287.607+561.739+286.714C563.79+296.921+563.037+307.677+559.586+317.499C536.86+316.701+514.134+315.902+491.408+315.104C489.892+315.051+488.248+315.034+487.02+315.925C485.429+317.079+485.127+319.287+484.96+321.244C484.186+330.295+483.412+339.346+482.638+348.397C482.409+351.065+482.381+354.216+484.503+355.847C485.898+356.918+487.799+356.96+489.557+356.957C499.028+356.936+508.498+356.915+517.969+356.894C518.82+367.309+519.041+377.775+518.631+388.216M533.677+306.923C533.011+307.589+532.344+308.256+531.678+308.923C531.033+308.291+530.388+307.66+529.743+307.029C527.986+308.176+526.23+309.323+524.473+310.469C535.922+311.228+547.42+311.227+558.868+310.467C557.119+309.316+555.37+308.164+553.62+307.012C552.989+307.634+552.357+308.256+551.725+308.878C549.124+306.086+544.111+306.107+541.533+308.92C540.618+306.616+536.642+306.638+535.753+308.952C535.061+308.275+534.369+307.599+533.677+306.923Z" opacity="1" fill="#ff7555"/>
<path d="M315.726+464.452C312.862+460.193+311.775+454.778+312.776+449.744C315.82+449.579+318.772+448.124+320.758+445.811C313.869+446.156+307.743+438.801+309.33+432.088C311.951+430.083+314.985+428.621+318.186+427.822C320.719+390.556+323.23+352.852+316.748+316.067C314.352+302.465+310.793+288.112+315.7+275.202C316.252+273.751+317.65+272.055+319.007+272.808C329.665+278.724+343.713+277.885+353.591+270.742C357.181+273.342+357.373+279.443+353.953+282.263C378.747+288.605+404.247+292.178+429.829+292.895C431.574+300.136+430.736+307.972+427.499+314.681C415.596+313.737+403.693+312.793+391.789+311.85C402.207+314.368+412.626+316.887+423.044+319.406C425.505+320.001+427.95+323.864+425.426+324.077C403.941+320.622+382.457+317.166+360.972+313.711C358.402+313.297+355.287+313.083+353.693+315.14C352.797+316.296+352.677+317.854+352.597+319.314C350.738+353.379+351.583+387.592+355.119+421.524C355.265+422.923+355.485+424.46+356.545+425.385C357.626+426.327+359.214+426.315+360.646+426.245C368.539+425.858+376.888+425.094+383.265+420.425C389.641+415.757+392.788+405.807+387.687+399.771C380.764+399.382+373.841+398.992+366.918+398.603C367.153+388.293+367.387+377.983+367.622+367.673C385.659+366.556+403.807+367.234+421.712+369.693C423.131+369.888+424.667+370.154+425.637+371.208C426.697+372.361+426.752+374.09+426.747+375.656C426.717+385.102+426.687+394.548+426.658+403.994C424.297+404.664+421.937+405.334+419.577+406.004C419.653+420.145+423.87+434.24+431.572+446.1C423.381+455.932+408.656+459.686+396.757+454.975C383.542+449.743+367.746+451.625+356.13+459.815C352.144+462.624+346.979+462.955+342.108+463.188C333.314+463.609+324.52+464.03+315.726+464.452M389.029+373.524C384.882+372.995+380.7+372.729+376.519+372.728C374.471+372.727+371.584+374.373+372.879+375.96C373.312+376.49+374.055+376.622+374.733+376.72C379.835+377.451+386.057+377.735+389.029+373.524Z" opacity="1" fill="#ff7555"/>
<path d="M899.189+437.914C897.454+434.864+893.189+433.574+890.055+435.152C887.764+434.423+888.088+430.677+890.131+429.41C892.174+428.143+894.802+428.603+897.143+429.151C900.462+375.87+899.923+322.35+895.531+269.148C898.375+266.166+902.104+271.889+902.251+276.007C902.779+290.808+903.306+305.609+903.834+320.411C909.284+304.222+910.774+286.716+908.138+269.84C917.099+268.704+926.171+268.441+935.182+269.058C931.542+320.266+930.233+371.639+931.261+422.966C931.312+425.497+931.488+428.315+933.324+430.058C935.315+431.948+938.423+431.805+941.156+431.541C965.617+429.18+990.078+426.82+1014.54+424.459C1014.02+434.025+1013.51+443.591+1013+453.157C1012.87+455.529+1012.55+458.251+1010.59+459.581C1009.36+460.41+1007.79+460.467+1006.31+460.496C982.422+460.97+958.536+461.444+934.649+461.918C934.5+466.353+934.352+470.789+934.203+475.224C919.474+469.858+904.446+465.31+889.213+461.609C888.966+454.355+888.72+447.101+888.474+439.847C892.046+439.202+895.618+438.558+899.189+437.914M940.734+440.002C942.329+441.372+944.66+441.328+946.758+441.198C956.314+440.605+965.851+439.747+975.386+438.89C983.566+438.155+991.745+437.419+999.924+436.684C1001.12+436.576+1002.59+436.243+1002.88+435.076C1003.3+433.34+1000.76+432.582+998.976+432.673C988.422+433.206+977.904+434.281+967.391+435.356C961.041+436.005+954.691+436.654+948.342+437.303C945.602+437.583+942.609+437.985+940.734+440.002M983.567+452.924C988.605+452.944+993.642+452.964+998.679+452.984C1003.07+453.002+1007.47+453.02+1011.86+453.038C1003.87+446.76+991.602+446.71+983.567+452.924Z" opacity="1" fill="#ff7555"/>
<path d="M1233.71+399.634C1232.06+388.748+1232.02+377.618+1233.6+366.722C1252.24+366.961+1270.87+367.881+1289.44+369.478C1295.99+381.134+1294.86+396.659+1286.69+407.242C1282.92+412.129+1285.07+419.145+1287.37+424.873C1290.51+432.689+1293.65+440.506+1296.79+448.323C1291.26+447.172+1285.35+452.291+1285.7+457.937C1277.16+456.651+1268.62+455.365+1260.08+454.079C1249.93+452.55+1239.04+451.124+1229.82+455.63C1215.65+462.55+1199.56+465.472+1183.87+463.974C1182.41+463.835+1180.84+463.611+1179.77+462.612C1176.29+459.37+1180.99+451.681+1176.79+449.452C1179.98+450.206+1183.57+448.575+1185.11+445.681C1182.68+445.343+1180.26+445.005+1177.83+444.667C1175.02+441.01+1173.88+436.119+1174.77+431.594C1183.08+431.71+1185.72+420.528+1185.68+412.223C1185.52+382.575+1185.36+352.927+1185.2+323.279C1185.16+316.024+1184.28+307.318+1177.82+304.01C1178.15+295.759+1178.49+287.508+1178.82+279.256C1178.89+277.633+1179.03+275.844+1180.18+274.7C1182+272.887+1185.03+273.781+1187.49+274.554C1198.28+277.955+1210.53+276.394+1220.13+270.395C1221.58+274.362+1221.64+278.821+1220.3+282.826C1243.34+288.401+1266.93+291.671+1290.61+292.574C1296.65+292.804+1297.11+301.598+1295.57+307.44C1294.95+309.824+1294.1+312.483+1291.9+313.589C1290.47+314.307+1288.78+314.188+1287.19+314.051C1276.94+313.176+1266.69+312.301+1256.44+311.425C1268.73+314.03+1280.81+317.655+1292.51+322.249C1269.58+322.255+1246.93+317.649+1224.47+313.063C1219.87+312.125+1217.67+318.491+1217.49+323.18C1216.18+357.764+1217.2+392.436+1220.54+426.883C1226.32+426.061+1232.1+425.238+1237.89+424.416C1244.09+423.534+1251.08+422.165+1254.42+416.864C1257.65+411.743+1255.75+404.357+1250.92+400.705C1246.1+397.054+1239.14+396.953+1233.71+399.634M1249.63+372.887C1247.01+372.899+1244.4+372.912+1241.79+372.924C1240.35+372.93+1238.44+373.344+1238.35+374.785C1238.25+376.336+1240.34+376.897+1241.9+376.921C1244.2+376.958+1246.51+376.994+1248.82+377.03C1250.74+377.061+1253.47+376.089+1252.85+374.269C1252.44+373.083+1250.88+372.881+1249.63+372.887M1203.63+426.824C1205.61+425.832+1203.72+422.042+1201.73+423.034C1199.75+424.026+1201.64+427.816+1203.63+426.824Z" opacity="1" fill="#ff7555"/>
<path d="M1022.57+492.85C1030.5+492.649+1039.65+492.984+1044.59+499.198C1047.9+503.365+1048.28+509.417+1046.22+514.322C1044.16+519.226+1039.92+523.011+1035.12+525.299C1038.8+533.39+1043.36+541.077+1048.71+548.178C1046.69+549.959+1043.43+549.532+1041.26+547.947C1039.09+546.361+1037.76+543.905+1036.5+541.532C1034.85+538.423+1033.21+535.315+1031.56+532.206C1029.29+527.931+1025.34+522.922+1020.76+524.495C1016.94+525.808+1016.05+530.831+1016.56+534.835C1017.07+538.839+1018.27+543.164+1016.35+546.715C1015.9+547.547+1015.25+548.321+1014.37+548.672C1012.68+549.35+1010.7+548.173+1009.84+546.559C1008.99+544.944+1008.97+543.034+1008.98+541.208C1009.01+527.375+1009.03+513.542+1009.06+499.71C1009.07+497.508+1009.27+494.92+1011.14+493.751C1012.13+493.131+1013.36+493.083+1014.52+493.054C1017.2+492.986+1019.89+492.918+1022.57+492.85M1037.69+501.329C1034.27+498.778+1029.42+499.532+1025.44+498.003C1024.17+497.516+1022.92+496.781+1021.56+496.825C1017.93+496.94+1016.89+501.795+1016.93+505.423C1016.97+509.006+1017.01+512.589+1017.05+516.172C1017.05+516.72+1017.07+517.307+1017.39+517.751C1017.75+518.249+1018.4+518.436+1019+518.58C1024.8+519.976+1031.4+520.166+1036.23+516.655C1041.06+513.144+1042.48+504.895+1037.69+501.329Z" opacity="1" fill="#ff7555"/>
<path d="M1211.12+493.019C1214.34+492.964+1217.55+492.908+1220.77+492.853C1226.47+492.755+1232.6+492.777+1237.29+496.024C1242.34+499.517+1244.52+506.397+1243.03+512.351C1241.54+518.305+1236.76+523.164+1231.04+525.401C1235.26+533.387+1239.89+541.154+1244.91+548.66C1241.81+549.7+1238.28+548.549+1235.8+546.413C1233.31+544.277+1231.73+541.292+1230.48+538.266C1229.27+535.329+1228.31+532.253+1226.56+529.601C1224.81+526.95+1222.06+524.714+1218.89+524.552C1215.72+524.391+1212.38+526.979+1212.57+530.149C1212.83+534.379+1213.08+538.61+1213.34+542.84C1213.48+545.148+1213.34+547.974+1211.3+549.055C1209.46+550.028+1207.08+548.805+1206.06+546.994C1205.04+545.184+1205.01+542.998+1205.01+540.919C1205.02+527.027+1205.03+513.136+1205.05+499.245C1205.05+497.507+1205.13+495.572+1206.36+494.345C1207.56+493.15+1209.43+493.048+1211.12+493.019M1215.08+518.745C1219.94+519.418+1225.03+519.931+1229.62+518.202C1234.2+516.473+1238.06+511.807+1237.22+506.978C1236.5+502.837+1232.57+499.851+1228.48+498.912C1224.38+497.973+1220.11+498.664+1215.96+499.358C1215.04+499.511+1214.03+499.718+1213.48+500.462C1213+501.094+1212.98+501.948+1212.99+502.739C1213+507.194+1213.01+511.649+1213.03+516.104C1213.03+516.883+1213.08+517.767+1213.67+518.269C1214.06+518.593+1214.58+518.676+1215.08+518.745Z" opacity="1" fill="#ff7555"/>
<path d="M608.503+533.14C607.515+535.978+606.306+539.079+603.632+540.451C602.289+541.14+600.395+541.168+599.508+539.946C592.34+530.075+588.802+518.101+585.39+506.389C585.237+520.25+585.085+534.111+584.933+547.972C584.925+548.64+584.91+549.34+584.58+549.92C583.725+551.423+581.255+551.083+580.198+549.715C579.142+548.346+579.093+546.478+579.089+544.749C579.057+528.43+579.024+512.111+578.991+495.792C578.987+493.339+582.459+492.199+584.59+493.415C586.72+494.63+587.723+497.111+588.576+499.411C593.059+511.492+597.543+523.572+602.026+535.653C605.927+523.989+609.828+512.325+613.729+500.661C614.668+497.855+615.784+494.819+618.317+493.29C620.85+491.76+625.083+493.087+625.081+496.046C625.07+512.117+625.059+528.189+625.048+544.261C625.046+546.313+624.951+548.601+623.487+550.039C622.024+551.477+618.795+550.826+618.862+548.775C619.346+533.972+619.236+519.15+618.531+504.356C615.188+513.951+611.846+523.545+608.503+533.14Z" opacity="1" fill="#ff7555"/>
<path d="M692.961+468.178C693.652+454.746+692.882+441.239+690.667+427.972C688.28+441.099+687.671+454.548+688.865+467.836C683.432+470.269+676.93+470.181+671.564+467.603C678.69+450.892+668.103+432.34+657.935+417.285C644.702+397.691+631.464+378.09+617.456+359.041C616.764+395.974+616.071+432.906+615.379+469.838C614.033+471.588+611.002+470.869+609.758+469.046C608.514+467.222+608.536+464.849+608.603+462.643C609.04+448.296+609.478+433.949+609.915+419.602C604.526+434.85+602.151+451.157+602.969+467.308C597.525+469.12+591.784+470.955+586.15+469.871C580.515+468.787+575.218+463.662+576.095+457.992C586.041+393.7+590.275+328.526+588.73+263.488C596.352+265.937+603.974+268.386+611.596+270.834C615.488+272.085+619.509+273.408+622.54+276.15C625.572+278.893+627.343+283.477+625.609+287.179C619.491+300.235+627.747+315.179+635.716+327.196C648.441+346.386+661.167+365.576+673.893+384.767C671.376+352.072+668.86+319.377+666.343+286.682C666.116+283.721+665.922+280.581+667.297+277.948C668.671+275.316+672.239+273.6+674.715+275.239C673.488+285.286+674.411+295.59+677.405+305.258C679.074+298.027+679.341+290.475+678.187+283.144C677.23+277.065+681.399+271.105+686.731+268.034C692.064+264.962+698.361+264.158+704.469+263.414C700.681+329.214+703.454+395.391+712.733+460.644C713.328+464.822+709.526+468.597+705.41+469.531C701.294+470.464+697.024+469.317+692.961+468.178M642.3+352.924C640.363+352.618+640.651+355.872+641.823+357.443C651.005+369.744+660.186+382.044+669.367+394.345C670.078+395.297+670.847+396.295+671.957+396.718C673.067+397.141+674.594+396.691+674.876+395.538C675.1+394.62+674.487+393.728+673.909+392.982C663.853+380.003+653.798+367.025+643.742+354.047C643.359+353.553+642.917+353.022+642.3+352.924M674.364+426.841C673.257+421.589+671.073+416.567+667.988+412.175C666.107+409.496+663.9+407.057+661.541+404.788C659.809+407.498+661.535+411.017+663.244+413.742C666.312+418.635+669.529+423.683+674.364+426.841M630.234+328.792C630.287+323.973+627.417+319.236+623.12+317.053C623.067+321.873+625.937+326.609+630.234+328.792Z" opacity="1" fill="#ff7555"/>
<path d="M813.626+410.864C801.492+410.42+789.342+410.401+777.207+410.807C770.262+429.778+763.316+448.749+756.371+467.72C753.074+466.255+753.672+461.452+754.821+458.031C758.932+445.789+763.043+433.547+767.154+421.305C760.216+435.159+753.277+449.014+746.339+462.868C741.237+460.79+736.135+458.712+731.034+456.634C729.381+455.961+727.572+455.138+726.879+453.494C726.322+452.173+726.644+450.663+726.998+449.273C729.896+437.897+734.408+426.934+740.359+416.815C737.016+416.461+733.674+416.106+730.331+415.752C731.215+405.23+732.099+394.708+732.983+384.186C733.104+382.735+733.274+381.171+734.252+380.092C736.483+377.632+740.443+379.563+743.75+379.874C751.462+380.6+756.264+371.917+758.957+364.654C769.013+337.531+779.07+310.407+789.126+283.283C789.753+281.594+790.474+279.785+791.999+278.827C793.449+277.918+795.288+277.993+796.992+278.15C808.276+279.19+819.348+282.483+829.366+287.778C822.858+293.084+820.238+302.039+820.605+310.428C820.972+318.817+823.915+326.851+826.826+334.727C830.046+343.443+833.267+352.158+836.487+360.874C838.225+365.578+840.068+370.448+843.656+373.952C847.244+377.456+853.113+379.164+857.372+376.516C860.405+385.474+859.585+395.666+855.158+404.023C856.618+404.691+857.312+406.338+857.876+407.842C863.006+421.511+868.136+435.179+873.267+448.848C873.744+450.121+874.22+451.555+873.668+452.798C873.088+454.103+871.598+454.698+870.249+455.168C862.999+457.695+855.75+460.223+848.5+462.75C844.432+446.216+839.917+428.852+828.073+416.619C832.447+430.221+836.821+443.824+841.196+457.426C841.878+459.547+842.564+461.818+841.964+463.963C841.364+466.108+838.898+467.872+836.896+466.894C831.68+450.232+826.464+433.57+821.248+416.907C820.67+415.06+819.995+413.076+818.405+411.972C817.042+411.025+815.284+410.924+813.626+410.864M798.092+355.091C797.497+355.378+797.187+356.031+796.922+356.636C794.318+362.586+791.713+368.535+789.108+374.485C788.696+375.426+788.29+376.546+788.81+377.433C789.454+378.53+791.02+378.507+792.282+378.346C796.807+377.767+801.333+377.188+805.858+376.609C806.759+376.493+807.815+376.268+808.176+375.434C808.457+374.787+808.185+374.045+807.914+373.394C805.712+368.104+803.511+362.814+801.31+357.524C800.728+356.125+799.457+354.432+798.092+355.091M799.894+282.905C797.006+284.184+795.653+287.446+794.567+290.411C791.422+298.996+788.277+307.58+785.133+316.165C784.744+317.227+784.351+318.383+784.68+319.465C785.009+320.548+786.419+321.341+787.311+320.645C787.681+320.356+787.867+319.897+788.038+319.46C791.76+309.91+795.482+300.36+799.204+290.81C800.197+288.263+801.174+285.32+799.894+282.905M781.438+404.993C788.084+404.164+794.731+403.334+801.378+402.504C803.389+402.253+802.301+398.701+800.28+398.559C798.259+398.416+796.558+399.947+794.688+400.727C792.818+401.507+789.888+400.816+789.989+398.793C789.58+400.495+787.427+401.091+785.683+400.934C783.939+400.778+782.13+400.203+780.487+400.81C778.845+401.417+777.974+404.047+779.53+404.849C780.106+405.146+780.795+405.074+781.438+404.993M745.719+391.1C747.833+390.895+749.791+389.5+750.675+387.569C746.042+386.48+741.153+386.497+736.528+387.619C738.375+390.539+742.355+391.899+745.602+390.72L745.719+391.1Z" opacity="1" fill="#ff7555"/>
<path d="M1152.13+543.11C1147.4+537.975+1145.24+530.899+1144.72+523.936C1143.95+513.781+1146.88+502.723+1154.87+496.409C1164.15+489.068+1179.21+490.664+1186.76+499.787C1192.1+506.251+1193.51+515.177+1192.99+523.549C1192.62+529.465+1191.33+535.487+1188.01+540.399C1184.15+546.112+1177.6+549.918+1170.73+550.437C1163.85+550.956+1156.8+548.178+1152.13+543.11M1184.39+510.83C1183.68+505.436+1179.85+500.566+1174.78+498.599C1169.71+496.632+1163.6+497.651+1159.44+501.157C1157.82+502.525+1156.49+504.221+1155.39+506.03C1149.88+515.013+1149.93+527.113+1155.53+536.044C1156.76+538.015+1158.25+539.848+1160.09+541.27C1164.24+544.485+1170.13+545.301+1175+543.337C1179.88+541.373+1183.55+536.702+1184.32+531.505C1184.8+528.188+1184.39+524.268+1186.9+522.049C1184.11+519.29+1184.9+514.722+1184.39+510.83Z" opacity="1" fill="#ff7555"/>
<path d="M1069.68+466.854C1067.27+467.658+1064.08+466.092+1063.99+463.549C1051.51+468.293+1037.39+468.58+1024.73+464.347C1025.31+455.336+1025.9+446.326+1026.48+437.315C1026.75+433.144+1029.14+427.437+1033.08+428.853C1037.97+391.298+1038.49+353.177+1034.63+315.502C1032.85+298.021+1032.32+280.41+1033.06+262.853C1045.74+265.409+1058.17+269.132+1070.17+273.961C1068.95+276.935+1071+280.435+1073.84+281.94C1076.68+283.445+1080.04+283.461+1083.25+283.407C1105.3+283.042+1127.32+281.081+1149.08+277.545C1153.08+276.895+1157.89+276.477+1160.47+279.607C1152.84+327.611+1151.54+376.614+1156.59+424.957C1162.07+427.473+1165.83+433.353+1165.82+439.386C1165.81+445.418+1162.02+451.282+1156.53+453.777C1158.73+455.085+1161.46+455.464+1163.93+454.803C1164.08+456.2+1164.23+457.597+1164.38+458.995C1160.22+462.741+1155.72+466.652+1150.19+467.488C1144.65+468.324+1138.07+464.504+1138.23+458.909C1135.56+460.085+1134+463.337+1134.76+466.154C1129.78+467.063+1124.68+467.318+1119.63+466.91C1118.52+464.625+1118.2+461.964+1118.74+459.481C1105.92+458.42+1092.99+458.65+1080.22+460.167C1075.75+460.697+1070.25+462.39+1069.68+466.854M1073.35+428.789C1085.92+429.165+1098.51+429.083+1111.07+428.542C1115.38+428.357+1120.96+426.949+1121.24+422.644C1123.53+387.542+1123+352.256+1119.67+317.238C1119.61+316.592+1119.52+315.892+1119.07+315.433C1118.54+314.907+1117.71+314.874+1116.97+314.875C1102.64+314.895+1088.32+314.914+1073.99+314.933C1072.91+314.935+1071.7+314.991+1070.96+315.783C1070.35+316.439+1070.26+317.405+1070.2+318.297C1067.86+353.861+1067.78+389.575+1069.96+425.15C1070.03+426.291+1070.18+427.583+1071.1+428.259C1071.73+428.723+1072.57+428.766+1073.35+428.789M1084.64+294.243C1085.44+295.402+1087.21+294.656+1088.5+294.118C1090.26+293.391+1092.19+293.276+1094.09+293.168C1107.38+292.412+1120.67+291.581+1133.96+290.673C1136.5+290.5+1139.43+290.099+1140.76+287.929C1139.12+286.438+1136.65+286.463+1134.44+286.587C1118.82+287.463+1103.23+288.974+1087.74+291.115C1085.98+291.358+1083.64+292.783+1084.64+294.243M1109.08+449.313C1096.73+448.382+1084.26+449.18+1072.13+451.679C1071.71+451.764+1071.27+451.863+1070.96+452.154C1069.57+453.468+1072.4+455.08+1074.32+454.919C1081.76+454.294+1089.21+453.668+1096.66+453.043C1101.04+452.674+1105.74+452.179+1109.08+449.313M1064.89+427.904C1064.65+424.805+1064.42+421.705+1064.18+418.606C1060.42+421.274+1059.25+426.996+1061.68+430.92C1062.68+429.921+1063.68+428.922+1064.68+427.923M1129.56+320.761C1130.66+320.07+1131.82+319.318+1132.38+318.147C1132.95+316.976+1132.61+315.273+1131.38+314.841C1130.1+314.389+1128.73+315.643+1128.53+316.989C1128.33+318.335+1128.92+319.659+1129.49+320.892M1059.68+454.783C1061.08+455.076+1062.64+455.319+1063.83+454.531C1065.02+453.743+1065.09+451.489+1063.7+451.167C1062.1+452.142+1060.5+453.116+1058.9+454.09M1140.59+454.618C1139.54+452.479+1136.07+452.165+1134.65+454.08C1136.13+454.987+1137.98+455.273+1139.66+454.856L1140.59+454.618Z" opacity="1" fill="#ff7555"/>
<path d="M430.717+492.098C440.53+489.567+451.699+494.418+456.748+503.206C459.699+508.341+460.642+514.412+460.627+520.334C460.608+528.06+458.877+536.116+453.884+542.011C448.808+548.004+440.525+551.101+432.763+549.91C425.002+548.719+418.029+543.279+414.984+536.041C413.018+531.368+412.644+526.184+412.687+521.115C412.74+514.886+413.448+508.458+416.501+503.029C419.511+497.675+424.769+493.632+430.717+492.098M431.041+498.107C428.98+498.743+427.031+499.806+425.502+501.326C423.975+502.844+422.909+504.764+422.044+506.735C419.108+513.421+418.299+521.022+419.761+528.176C421.36+535.998+426.779+543.97+434.719+544.806C440.773+545.443+446.68+541.573+449.793+536.342C452.906+531.111+453.623+524.773+453.319+518.694C453.042+513.146+451.85+507.37+448.257+503.134C444.162+498.305+437.091+496.241+431.041+498.107Z" opacity="1" fill="#ff7555"/>
<path d="M918.629+498.837C925.898+511.907+933.168+524.978+940.437+538.048C941.205+525.419+941.375+512.754+940.944+500.11C940.879+498.196+940.848+496.119+941.982+494.576C943.115+493.033+945.899+492.664+946.778+494.365C947.087+494.963+947.093+495.666+947.093+496.34C947.084+513.02+947.076+529.699+947.068+546.379C947.067+548.588+944.109+549.768+942.072+548.915C940.035+548.061+938.802+546.015+937.708+544.097C929.72+530.087+921.732+516.077+913.744+502.067C912.582+516.941+912.906+531.887+913.232+546.803C913.276+548.844+910.066+549.469+908.613+548.035C907.161+546.6+907.066+544.325+907.064+542.284C907.049+528.398+907.034+514.512+907.019+500.626C907.016+497.863+907.335+494.54+909.793+493.278C913.237+491.509+916.747+495.453+918.629+498.837Z" opacity="1" fill="#ff7555"/>
<path d="M526.101+493.076C528.489+493.681+528.982+496.805+528.992+499.268C529.032+509.436+529.072+519.604+529.112+529.772C529.122+532.496+529.15+535.307+530.224+537.81C531.701+541.255+535.095+543.69+538.768+544.439C545.516+545.816+552.934+541.201+554.681+534.539C555.297+532.187+555.274+529.722+555.248+527.291C555.148+518.28+555.049+509.269+554.949+500.259C554.916+497.246+555.764+493.228+558.774+493.089C561.834+492.948+563.011+496.996+563.115+500.057C563.431+509.418+563.128+518.8+562.209+528.121C561.615+534.141+560.567+540.565+556.395+544.945C552.81+548.708+547.411+550.311+542.214+550.331C535.653+550.357+528.662+547.667+525.4+541.975C524.403+540.236+523.796+538.304+523.289+536.365C520.222+524.615+520.661+512.272+521.122+500.137C521.248+496.814+522.877+492.261+526.101+493.076Z" opacity="1" fill="#ff7555"/>
<path d="M973.702+498.946C971.5+498.933+970.517+501.797+970.785+503.983C971.054+506.169+971.887+508.519+970.856+510.465C969.334+513.333+972.329+516.805+975.518+517.411C978.708+518.018+981.949+516.911+985.189+516.706C988.429+516.5+992.297+517.731+993.151+520.863C987.403+523.464+980.777+524.077+974.649+522.574C972.047+521.936+970.851+525.69+970.889+528.369C970.946+532.274+971.002+536.179+971.058+540.084C971.077+541.352+971.491+543.04+972.759+543.04C979.7+543.039+986.641+543.038+993.582+543.038C994.797+543.038+996.168+543.104+996.976+544.01C998.083+545.251+997.343+547.376+995.942+548.272C994.541+549.168+992.772+549.184+991.109+549.171C983.941+549.116+976.773+549.06+969.605+549.004C967.481+548.988+965.012+548.798+963.815+547.043C963.072+545.954+963.045+544.545+963.044+543.226C963.04+528.748+963.036+514.269+963.032+499.791C963.031+497.592+963.213+495.029+965.033+493.796C966.142+493.044+967.572+493.016+968.912+493.015C977.573+493.005+986.234+492.996+994.895+492.986C996.904+492.984+997.47+496.144+996.043+497.559C994.617+498.974+992.379+499.052+990.37+499.04C984.814+499.009+979.258+498.977+973.702+498.946Z" opacity="1" fill="#ff7555"/>
<path d="M399.855+505.684C402.169+510.049+402.816+515.116+402.792+520.056C402.748+529.292+399.97+539.263+392.474+544.661C385.135+549.945+375.292+549.581+366.267+548.996C363.012+548.785+362.281+544.291+362.843+541.078C363.405+537.866+363.861+533.679+360.961+532.188C362.934+530.944+363.137+528.198+363.126+525.865C363.079+515.632+363.032+505.399+362.985+495.165C362.98+494.041+364.36+493.521+365.47+493.339C371.893+492.284+378.582+492.167+384.817+494.037C391.052+495.907+396.807+499.932+399.855+505.684M369.583+499.791C369.076+500.316+369.045+501.124+369.045+501.854C369.04+514.53+369.035+527.207+369.031+539.883C369.03+540.607+369.05+541.39+369.495+541.959C370.03+542.643+370.989+542.789+371.852+542.884C376.732+543.42+381.951+543.897+386.293+541.607C393.195+537.967+395.064+529.014+395.324+521.215C395.556+514.241+394.668+506.326+389.154+502.049C384.319+498.299+377.576+498.638+371.479+499.156C370.799+499.214+370.057+499.301+369.583+499.791Z" opacity="1" fill="#ff7555"/>
<path d="M887.56+493.008C890.744+493.017+894.898+493.827+895.294+496.986C888.083+499.498+880.199+500.048+872.709+498.561C870.32+498.087+868.71+501.115+868.804+503.549C868.898+505.984+869.788+508.544+868.795+510.769C867.486+513.702+870.578+516.955+873.748+517.475C876.919+517.996+880.11+516.877+883.317+516.687C886.524+516.498+890.344+517.784+891.125+520.9C885.368+523.461+878.76+524.06+872.637+522.578C870.033+521.947+868.844+525.703+868.886+528.382C868.948+532.327+869.01+536.271+869.072+540.215C869.091+541.428+869.488+543.041+870.7+543.04C876.608+543.037+882.516+543.034+888.424+543.031C890.414+543.03+892.629+543.118+894.037+544.524C895.445+545.931+894.882+549.056+892.892+549.057C884.602+549.059+876.313+549.061+868.023+549.063C865.728+549.064+863.037+548.861+861.793+546.932C861.081+545.828+861.057+544.432+861.055+543.117C861.039+528.786+861.023+514.455+861.007+500.123C861.005+498.034+861.111+495.682+862.653+494.272C864.033+493.009+866.095+492.945+867.966+492.95C874.497+492.969+881.029+492.989+887.56+493.008Z" opacity="1" fill="#ff7555"/>
<path d="M717.799+544.359C709.537+530.704+701.816+516.723+694.659+502.458C693.026+504.121+692.938+506.713+692.95+509.043C693.013+520.845+693.076+532.648+693.139+544.45C693.15+546.489+692.715+549.113+690.717+549.516C688.151+550.032+687.023+546.409+687.021+543.791C687.014+529.67+687.006+515.548+686.998+501.426C686.997+499.442+687.012+497.383+687.858+495.589C688.703+493.794+690.635+492.347+692.582+492.726C694.462+493.093+695.644+494.91+696.604+496.567C704.875+510.832+712.944+525.214+720.809+539.707C720.922+525.437+721.035+511.167+721.148+496.897C721.161+495.279+721.385+493.316+722.859+492.649C725.445+491.478+727.102+495.507+727.1+498.345C727.088+514.361+727.076+530.376+727.064+546.392C727.062+548.552+724.206+549.739+722.194+548.953C720.181+548.168+718.917+546.207+717.799+544.359Z" opacity="1" fill="#ff7555"/>
<path d="M675.132+496.57C668.018+499.345+660.114+500.061+652.618+498.607C650.242+498.147+648.675+501.18+648.796+503.596C648.917+506.013+649.818+508.56+648.809+510.76C647.509+513.596+650.392+516.828+653.454+517.425C656.517+518.023+659.634+516.998+662.741+516.715C665.848+516.433+669.536+517.272+670.809+520.121C669.155+522.78+665.597+523.535+662.471+523.345C659.345+523.155+656.228+522.277+653.123+522.688C650.019+523.099+646.796+525.413+646.861+528.544C646.944+532.593+647.027+536.641+647.11+540.69C647.131+541.69+647.462+543.019+648.462+543.02C655.138+543.027+661.813+543.035+668.488+543.042C670.463+543.044+672.66+543.133+674.056+544.53C675.453+545.926+674.898+549.026+672.924+549.032C664.731+549.057+656.539+549.082+648.347+549.108C646.195+549.114+643.765+549.004+642.329+547.401C641.086+546.013+641.019+543.965+641.019+542.101C641.02+528.05+641.021+513.998+641.022+499.946C641.022+498.067+641.092+495.997+642.359+494.608C643.787+493.041+646.175+492.936+648.295+492.942C654.714+492.96+661.132+492.978+667.55+492.996C670.577+493.005+674.43+493.626+675.132+496.57Z" opacity="1" fill="#ff7555"/>
<path d="M772.476+492.942C775.663+492.936+779.448+493.254+781.044+496.012C777.105+498.928+771.813+499.93+767.08+498.656C764.204+497.881+762.821+502.061+762.852+505.039C762.975+516.899+763.099+528.759+763.222+540.619C763.244+542.684+763.238+544.86+762.215+546.654C761.193+548.448+758.773+549.621+756.994+548.573C755.243+547.542+755.044+545.133+755.047+543.101C755.066+529.46+755.086+515.818+755.106+502.176C755.109+499.711+752.079+498.369+749.62+498.555C747.161+498.741+744.738+499.788+742.305+499.383C739.873+498.979+737.701+495.948+739.331+494.097C740.229+493.077+741.764+492.999+743.124+492.997C752.908+492.978+762.692+492.96+772.476+492.942Z" opacity="1" fill="#ff7555"/>
<path d="M477.514+499.482C484.045+491.755+496.141+489.415+505.083+494.147C506.821+495.067+508.588+496.456+508.813+498.409C509.037+500.363+506.593+502.359+505.085+501.097C499.831+496.699+491.627+496.285+485.957+500.131C479.997+504.173+477.468+511.77+476.954+518.952C476.376+527.035+478.29+535.973+484.648+540.999C491.271+546.234+501.906+545.355+507.58+539.103C509.372+538.885+510.8+540.951+510.531+542.736C510.263+544.522+508.848+545.918+507.345+546.918C503.852+549.243+499.558+550.145+495.362+550.122C486.573+550.073+477.485+545.556+473.708+537.619C471.98+533.988+471.435+529.924+470.911+525.937C470.651+523.958+470.391+521.979+470.132+520C470.337+515.154+471.493+510.35+473.515+505.941C474.574+503.632+475.874+501.422+477.514+499.482Z" opacity="1" fill="#ff7555"/>
<path d="M1132.77+492.959C1135.86+492.958+1139.56+493.299+1141.02+496.022C1137.1+498.941+1131.82+499.934+1127.11+498.636C1124.3+497.86+1122.92+501.946+1122.93+504.865C1122.98+518.414+1123.03+531.963+1123.08+545.512C1123.08+546.383+1123.08+547.29+1122.69+548.07C1121.57+550.33+1117.9+549.932+1116.35+547.941C1114.8+545.949+1114.76+543.211+1114.79+540.687C1114.94+527.901+1115.09+515.114+1115.24+502.328C1115.27+499.687+1111.92+498.392+1109.28+498.615C1106.65+498.837+1103.87+499.788+1101.48+498.674C1099.08+497.561+1098.88+492.972+1101.52+492.971C1111.94+492.967+1122.35+492.963+1132.77+492.959Z" opacity="1" fill="#ff7555"/>
<path d="M836.761+524.321C835.128+524.193+833.574+525.062+831.939+525.155C830.304+525.248+828.339+523.803+829.007+522.307C829.494+521.214+830.949+521.049+832.145+521.042C836.181+521.02+840.217+520.997+844.253+520.975C845.073+520.97+846.005+521.013+846.54+521.636C846.97+522.137+847+522.857+847.008+523.517C847.07+528.561+847.132+533.606+847.193+538.65C847.216+540.491+847.216+542.427+846.323+544.036C845.624+545.297+844.446+546.22+843.231+546.998C831.925+554.238+814.861+549.803+808.511+537.974C806.122+533.524+805.166+528.428+804.901+523.384C804.563+516.962+805.352+510.316+808.425+504.667C814.254+493.953+828.622+488.836+839.911+493.454C842.058+494.332+844.306+495.818+844.646+498.113C844.986+500.408+841.859+502.709+840.298+500.993C835.308+495.505+825.9+496.744+820.124+501.398C810.108+509.467+808.681+525.674+816.051+536.215C820.57+542.677+829.304+547.194+836.422+543.801C837.708+543.188+838.902+542.324+839.726+541.161C841.054+539.287+841.287+536.876+841.477+534.587C841.826+530.389+840.961+524.649+836.761+524.321Z" opacity="1" fill="#ff7555"/>
<path d="M1073.67+530.666C1070.72+530.743+1067.52+530.906+1065.24+532.778C1060.91+536.329+1062.3+543.773+1058.46+547.856C1057.2+549.199+1054.81+549.946+1053.62+548.543C1052.67+547.438+1053.09+545.765+1053.56+544.389C1058.84+528.821+1064.12+513.254+1069.41+497.686C1070.01+495.905+1070.73+493.976+1072.35+493.017C1074.38+491.81+1077.14+492.689+1078.78+494.392C1080.43+496.094+1081.23+498.42+1081.98+500.666C1086.75+514.969+1091.53+529.273+1096.31+543.576C1096.82+545.106+1097.29+546.925+1096.33+548.217C1095.06+549.915+1092.17+549.266+1090.88+547.579C1089.6+545.893+1089.41+543.652+1089.05+541.564C1088.47+538.245+1087.22+534.822+1084.52+532.809C1081.5+530.563+1077.43+530.567+1073.67+530.666M1076.76+501.424C1076.55+500.636+1076.24+499.731+1075.47+499.471C1074.19+499.037+1073.27+500.691+1072.93+501.999C1071+509.407+1069.07+516.815+1067.14+524.223C1066.62+526.226+1069.49+527.204+1071.56+527.22C1073.89+527.239+1076.22+527.258+1078.54+527.276C1080.15+527.289+1082.17+527.016+1082.64+525.483C1082.84+524.821+1082.67+524.11+1082.49+523.441C1080.58+516.102+1078.67+508.763+1076.76+501.424Z" opacity="1" fill="#ff7555"/>
</g>
</svg>
