<?xml version="1.0" encoding="UTF-8" standalone="no"?> <!-- Created with Vectornator for iOS (http://vectornator.io/) --><!DOCTYPE svg PUBLIC "-//W3C//DTD SVG 1.1//EN" "http://www.w3.org/Graphics/SVG/1.1/DTD/svg11.dtd">
<svg style="fill-rule:nonzero;clip-rule:evenodd;stroke-linecap:round;stroke-linejoin:round;" xmlns:vectornator="http://vectornator.io" xmlns:xlink="http://www.w3.org/1999/xlink" xmlns="http://www.w3.org/2000/svg" xml:space="preserve" version="1.1" viewBox="0 0 16 16">
<metadata>
<vectornator:setting key="DimensionsVisible" value="1"/>
<vectornator:setting key="PencilOnly" value="1"/>
<vectornator:setting key="SnapToPoints" value="0"/>
<vectornator:setting key="OutlineMode" value="0"/>
<vectornator:setting key="CMYKEnabledKey" value="0"/>
<vectornator:setting key="RulersVisible" value="1"/>
<vectornator:setting key="SnapToEdges" value="1"/>
<vectornator:setting key="GuidesVisible" value="1"/>
<vectornator:setting key="DisplayWhiteBackground" value="0"/>
<vectornator:setting key="doHistoryDisabled" value="0"/>
<vectornator:setting key="SnapToGuides" value="1"/>
<vectornator:setting key="TimeLapseWatermarkDisabled" value="0"/>
<vectornator:setting key="Units" value="Points"/>
<vectornator:setting key="DynamicGuides" value="1"/>
<vectornator:setting key="IsolateActiveLayer" value="0"/>
<vectornator:setting key="SnapToGrid" value="0"/>
</metadata>
<defs/>
<g id="LogoOutline copy Copy" vectornator:layerName="LogoOutline copy Copy">
<path d="M2.33111+0.955992C1.55171+0.955992+0.967288+1.17245+0.577586+1.60535C0.18789+2.03825-0.00605032+2.68441-0.00605032+3.54462L-0.00605032+12.4506C-0.00605032+13.3164+0.18789+13.9658+0.577586+14.3987C0.967283+14.8316+1.55171+15.048+2.33111+15.048L13.62+15.048C14.3994+15.048+14.9838+14.83+15.3735+14.3943C15.7632+13.9586+15.9584+13.3108+15.9584+12.4506L15.9584+3.54462C15.9584+2.68441+15.7632+2.03825+15.3735+1.60535C14.9838+1.17245+14.3994+0.955992+13.62+0.955992L2.33111+0.955992ZM2.34678+2.30467L13.6056+2.30467C13.973+2.30467+14.2572+2.41458+14.4582+2.63522C14.6593+2.85586+14.7598+3.18386+14.7598+3.61955L14.7598+12.3757C14.7598+12.8113+14.6593+13.141+14.4582+13.3644C14.2572+13.5878+13.973+13.6994+13.6056+13.6994L2.34678+13.6994C1.97445+13.6994+1.68882+13.5878+1.49025+13.3644C1.29168+13.141+1.19256+12.8113+1.19256+12.3757L1.19256+3.61955C1.19256+3.18386+1.29168+2.85586+1.49025+2.63522C1.68882+2.41458+1.97445+2.30467+2.34678+2.30467Z" opacity="1" fill="#ff7555"/>
<path d="M4.79584+12.3824C4.63741+12.1822+4.57732+11.9276+4.63266+11.6909C4.80101+11.6831+4.96433+11.6147+5.07417+11.506C4.6931+11.5223+4.3543+11.1765+4.44205+10.8609C4.58701+10.7666+4.75485+10.6979+4.93193+10.6603C5.07199+8.90832+5.21091+7.13579+4.85238+5.40642C4.71982+4.76697+4.52296+4.09218+4.79441+3.48525C4.82492+3.41702+4.90223+3.33727+4.97732+3.3727C5.56683+3.65083+6.34383+3.61139+6.89018+3.27559C7.08875+3.3978+7.09936+3.68464+6.91021+3.81722C8.28158+4.11536+9.69205+4.28335+11.107+4.31706C11.2036+4.65748+11.1572+5.02587+10.9782+5.34124C10.3198+5.29687+9.66138+5.25251+9.00299+5.20814C9.57923+5.32656+10.1555+5.44497+10.7317+5.56339C10.8679+5.59137+11.0031+5.77295+10.8635+5.783C9.67514+5.62055+8.48679+5.45809+7.29844+5.29564C7.15629+5.27621+6.98402+5.26613+6.89582+5.36286C6.84628+5.41718+6.83965+5.49044+6.83524+5.55907C6.73241+7.16057+6.7791+8.76898+6.97473+10.3642C6.98279+10.43+6.99493+10.5023+7.05358+10.5457C7.11336+10.59+7.2012+10.5895+7.28041+10.5862C7.71699+10.568+8.1788+10.532+8.53148+10.3126C8.88417+10.0931+9.05824+9.62533+8.7761+9.34157C8.39318+9.32326+8.01027+9.30495+7.62735+9.28663C7.64031+8.80194+7.65328+8.31725+7.66624+7.83256C8.66392+7.78005+9.66773+7.81191+10.658+7.92752C10.7365+7.93668+10.8215+7.94919+10.8751+7.99876C10.9338+8.05297+10.9368+8.13422+10.9365+8.20787C10.9349+8.65194+10.9332+9.09601+10.9316+9.54008C10.801+9.57158+10.6705+9.60308+10.54+9.63458C10.5442+10.2994+10.7774+10.962+11.2034+11.5196C10.7503+11.9818+9.9359+12.1583+9.27777+11.9369C8.54684+11.6909+7.67312+11.7794+7.03061+12.1644C6.81017+12.2965+6.52446+12.312+6.25505+12.323C5.76865+12.3428+5.28225+12.3626+4.79584+12.3824M8.85034+8.10764C8.62091+8.08277+8.38964+8.07026+8.15835+8.0702C8.0451+8.07017+7.88543+8.14756+7.95706+8.22212C7.981+8.24704+8.0221+8.25329+8.05957+8.25785C8.34177+8.29226+8.68593+8.30561+8.85034+8.10764Z" fill="#ff7555" opacity="1" vectornator:blendMode="Lighten"/>
<path d="M559.453+228.726L841.905+228.726C840.686+219.962+838.081+213.228+834.091+208.524C830.101+203.819+823.95+201.467+815.638+201.467L585.72+201.467C577.407+201.467+571.256+203.819+567.266+208.524C563.276+213.228+560.672+219.962+559.453+228.726Z" opacity="0" fill="#ff7555"/>
<path d="M583.401+184.066L817.957+184.066C817.478+175.365+815.055+168.736+810.689+164.178C806.322+159.621+800.011+157.342+791.755+157.342L609.602+157.342C601.347+157.342+595.036+159.621+590.669+164.178C586.302+168.736+583.879+175.365+583.401+184.066Z" opacity="0" fill="#ff7555"/>
</g>
<g id="Text Only copy copy" vectornator:layerName="Text Only copy copy" visibility="hidden">
<path d="M377.49+418.542C367.773+419.668+357.813+418.64+348.531+415.555C345.245+414.462+343.373+419.256+343.334+422.718C343.211+433.868+344.111+445.03+346.022+456.016C368.202+455.035+390.382+454.054+412.563+453.073C413.804+455.585+414.027+458.583+413.169+461.252C407.013+459.299+399.891+460.754+394.995+464.966C401.728+462.543+409.829+464.172+414.872+469.248C419.916+474.324+421.454+482.662+418.264+489.067C395.212+485.75+371.865+484.493+348.591+485.316C348.529+489.408+344.765+492.683+340.775+493.598C336.786+494.513+332.629+493.627+328.633+492.742C327.867+490.903+327.101+489.063+326.335+487.223C322.239+493.048+313.398+494.857+307.343+491.108C301.289+487.359+298.966+478.639+302.354+472.376C305.428+471.676+308.502+470.976+311.576+470.276C309.48+467.573+305.638+466.369+302.374+467.393C301.364+463.015+301.11+458.465+301.627+454.003C306.417+455.531+309.274+448.785+309.737+443.778C310.208+438.681+310.68+433.583+311.151+428.486C311.42+425.581+311.656+422.492+310.32+419.899C308.984+417.305+305.439+415.634+303.045+417.301C300.224+406.151+298.637+391.676+308.435+385.653C310.344+384.479+310.663+381.878+310.717+379.637C310.991+368.089+309.55+356.501+306.454+345.372C304.025+336.641+302.416+327.683+301.653+318.652C301.549+317.413+301.477+316.088+302.089+315.005C302.941+313.497+304.806+312.95+306.488+312.537C319.912+309.237+333.336+305.937+346.759+302.637C347.262+307.083+346.769+311.639+345.326+315.874C370.375+317.543+395.509+317.933+420.598+317.04C422.649+327.247+421.896+338.002+418.445+347.825C395.719+347.026+372.993+346.228+350.267+345.43C348.75+345.376+347.107+345.36+345.879+346.251C344.288+347.404+343.986+349.612+343.819+351.57C343.045+360.621+342.271+369.672+341.496+378.723C341.268+381.391+341.24+384.541+343.362+386.173C344.757+387.244+346.658+387.286+348.416+387.282C357.887+387.262+367.357+387.241+376.828+387.22C377.679+397.635+377.9+408.101+377.49+418.542M392.536+337.248C391.87+337.915+391.203+338.582+390.536+339.249C389.892+338.617+389.247+337.986+388.602+337.354C386.845+338.501+385.089+339.648+383.332+340.795C394.78+341.554+406.279+341.553+417.727+340.793C415.978+339.641+414.229+338.49+412.479+337.338C411.848+337.96+411.216+338.582+410.584+339.203C407.983+336.412+402.97+336.432+400.392+339.246C399.477+336.942+395.501+336.964+394.611+339.278C393.92+338.601+393.228+337.925+392.536+337.248Z" fill="#ff7555" opacity="1" vectornator:blendMode="Lighten"/>
<path d="M174.585+494.777C171.721+490.519+170.634+485.104+171.635+480.07C174.679+479.904+177.631+478.449+179.617+476.137C172.727+476.482+166.602+469.127+168.189+462.413C170.809+460.409+173.844+458.947+177.045+458.147C179.578+420.881+182.089+383.178+175.607+346.393C173.211+332.791+169.651+318.438+174.559+305.528C175.111+304.076+176.509+302.38+177.866+303.134C188.524+309.05+202.572+308.211+212.45+301.068C216.04+303.668+216.232+309.769+212.812+312.589C237.605+318.931+263.106+322.504+288.688+323.221C290.433+330.462+289.595+338.298+286.358+345.006C274.455+344.063+262.552+343.119+250.648+342.175C261.066+344.694+271.485+347.213+281.903+349.732C284.364+350.327+286.809+354.189+284.285+354.403C262.8+350.947+241.316+347.492+219.831+344.036C217.261+343.623+214.146+343.409+212.552+345.466C211.656+346.622+211.536+348.18+211.456+349.64C209.597+383.705+210.441+417.917+213.978+451.85C214.124+453.249+214.344+454.786+215.404+455.711C216.485+456.653+218.073+456.641+219.505+456.571C227.398+456.184+235.747+455.419+242.124+450.751C248.5+446.083+251.647+436.133+246.546+430.097C239.623+429.707+232.7+429.318+225.777+428.928C226.012+418.619+226.246+408.309+226.48+397.999C244.518+396.882+262.666+397.56+280.571+400.019C281.99+400.214+283.526+400.48+284.496+401.534C285.556+402.687+285.611+404.416+285.606+405.982C285.576+415.428+285.546+424.874+285.516+434.32C283.156+434.99+280.796+435.66+278.436+436.33C278.512+450.471+282.729+464.566+290.431+476.426C282.24+486.258+267.515+490.011+255.616+485.301C242.401+480.069+226.605+481.951+214.989+490.14C211.003+492.95+205.838+493.28+200.967+493.514C192.173+493.935+183.379+494.356+174.585+494.777M247.888+403.85C243.74+403.321+239.559+403.055+235.378+403.054C233.33+403.053+230.443+404.699+231.738+406.285C232.171+406.815+232.914+406.948+233.592+407.045C238.694+407.777+244.916+408.061+247.888+403.85Z" fill="#ff7555" opacity="1" vectornator:blendMode="Lighten"/>
<path d="M758.048+468.239C756.313+465.189+752.048+463.9+748.914+465.478C746.623+464.749+746.947+461.003+748.99+459.735C751.032+458.468+753.661+458.929+756.002+459.476C759.321+406.196+758.782+352.676+754.39+299.473C757.234+296.491+760.963+302.214+761.11+306.333C761.637+321.134+762.165+335.935+762.693+350.736C768.143+334.548+769.633+317.042+766.997+300.165C775.958+299.029+785.03+298.767+794.041+299.384C790.401+350.592+789.092+401.965+790.12+453.292C790.171+455.823+790.347+458.64+792.183+460.383C794.174+462.274+797.282+462.131+800.015+461.867C824.476+459.506+848.937+457.145+873.397+454.785C872.883+464.351+872.369+473.916+871.855+483.482C871.728+485.855+871.413+488.577+869.444+489.907C868.219+490.735+866.647+490.793+865.168+490.822C841.281+491.296+817.394+491.77+793.508+492.244C793.359+496.679+793.211+501.114+793.062+505.549C778.333+500.183+763.305+495.636+748.071+491.934C747.825+484.68+747.579+477.426+747.333+470.172C750.905+469.528+754.476+468.884+758.048+468.239M799.593+470.328C801.188+471.698+803.519+471.654+805.617+471.524C815.173+470.931+824.71+470.073+834.245+469.216C842.425+468.48+850.604+467.745+858.783+467.009C859.979+466.902+861.453+466.569+861.735+465.402C862.155+463.666+859.619+462.908+857.835+462.998C847.281+463.532+836.763+464.607+826.25+465.682C819.9+466.331+813.55+466.98+807.201+467.629C804.461+467.909+801.467+468.31+799.593+470.328M842.426+483.249C847.463+483.27+852.501+483.29+857.538+483.31C861.931+483.328+866.325+483.346+870.718+483.363C862.733+477.086+850.461+477.036+842.426+483.249Z" fill="#ff7555" opacity="1" vectornator:blendMode="Lighten"/>
<path d="M551.82+498.503C552.511+485.071+551.741+471.565+549.526+458.298C547.138+471.424+546.53+484.873+547.724+498.161C542.291+500.595+535.789+500.507+530.423+497.929C537.549+481.217+526.962+462.666+516.794+447.611C503.561+428.016+490.323+408.416+476.315+389.367C475.623+426.299+474.93+463.232+474.238+500.164C472.892+501.914+469.861+501.195+468.617+499.371C467.373+497.548+467.395+495.175+467.462+492.969C467.899+478.622+468.337+464.275+468.774+449.928C463.385+465.176+461.01+481.482+461.828+497.634C456.384+499.446+450.643+501.281+445.009+500.197C439.374+499.113+434.077+493.988+434.954+488.317C444.9+424.026+449.134+358.852+447.589+293.814C455.211+296.263+462.833+298.711+470.455+301.16C474.347+302.411+478.368+303.733+481.399+306.476C484.431+309.219+486.202+313.802+484.468+317.505C478.35+330.56+486.606+345.505+494.575+357.521C507.3+376.712+520.026+395.902+532.752+415.093C530.235+382.398+527.719+349.703+525.202+317.008C524.975+314.047+524.781+310.906+526.156+308.274C527.53+305.642+531.098+303.926+533.574+305.565C532.347+315.612+533.27+325.916+536.264+335.584C537.932+328.353+538.199+320.801+537.046+313.469C536.089+307.39+540.258+301.431+545.59+298.359C550.923+295.288+557.219+294.483+563.328+293.74C559.54+359.54+562.313+425.716+571.592+490.969C572.186+495.148+568.385+498.923+564.269+499.856C560.153+500.79+555.883+499.643+551.82+498.503M501.159+383.25C499.222+382.944+499.51+386.197+500.682+387.769C509.864+400.069+519.045+412.37+528.226+424.671C528.936+425.623+529.706+426.62+530.816+427.044C531.926+427.467+533.453+427.017+533.735+425.863C533.959+424.946+533.346+424.054+532.768+423.307C522.712+410.329+512.657+397.351+502.601+384.372C502.218+383.878+501.776+383.348+501.159+383.25M533.223+457.167C532.115+451.915+529.932+446.893+526.847+442.5C524.966+439.822+522.759+437.383+520.4+435.114C518.668+437.824+520.394+441.342+522.103+444.067C525.171+448.961+528.388+454.008+533.223+457.167M489.093+359.118C489.146+354.298+486.276+349.562+481.979+347.379C481.926+352.198+484.796+356.935+489.093+359.118Z" fill="#ff7555" opacity="1" vectornator:blendMode="Lighten"/>
<path d="M1092.57+429.96C1090.92+419.074+1090.88+407.944+1092.46+397.048C1111.1+397.287+1129.73+398.207+1148.3+399.804C1154.85+411.46+1153.72+426.984+1145.55+437.568C1141.78+442.454+1143.93+449.471+1146.23+455.198C1149.37+463.015+1152.51+470.832+1155.65+478.649C1150.11+477.497+1144.21+482.617+1144.56+488.263C1136.02+486.977+1127.48+485.691+1118.94+484.405C1108.79+482.876+1097.9+481.45+1088.68+485.955C1074.51+492.876+1058.42+495.798+1042.72+494.3C1041.27+494.161+1039.7+493.937+1038.63+492.938C1035.15+489.696+1039.85+482.007+1035.65+479.778C1038.84+480.532+1042.43+478.901+1043.96+476.007C1041.54+475.669+1039.12+475.331+1036.69+474.993C1033.88+471.336+1032.73+466.445+1033.63+461.92C1041.94+462.036+1044.58+450.854+1044.53+442.548C1044.37+412.9+1044.21+383.252+1044.05+353.604C1044.02+346.35+1043.13+337.644+1036.68+334.336C1037.01+326.085+1037.35+317.833+1037.68+309.582C1037.75+307.959+1037.88+306.17+1039.04+305.025C1040.86+303.212+1043.89+304.106+1046.35+304.88C1057.14+308.281+1069.39+306.72+1078.99+300.721C1080.44+304.688+1080.5+309.146+1079.16+313.152C1102.2+318.726+1125.79+321.997+1149.47+322.9C1155.51+323.13+1155.97+331.924+1154.43+337.766C1153.8+340.15+1152.96+342.808+1150.76+343.915C1149.33+344.632+1147.64+344.513+1146.05+344.377C1135.8+343.502+1125.55+342.626+1115.3+341.751C1127.59+344.356+1139.67+347.981+1151.37+352.575C1128.44+352.581+1105.79+347.975+1083.33+343.389C1078.73+342.45+1076.53+348.817+1076.35+353.506C1075.04+388.09+1076.05+422.762+1079.4+457.208C1085.18+456.386+1090.96+455.564+1096.74+454.742C1102.95+453.86+1109.94+452.491+1113.28+447.189C1116.51+442.069+1114.61+434.683+1109.78+431.031C1104.96+427.379+1098+427.279+1092.57+429.96M1108.49+403.213C1105.87+403.225+1103.26+403.237+1100.65+403.249C1099.2+403.256+1097.3+403.67+1097.21+405.111C1097.11+406.661+1099.2+407.223+1100.75+407.247C1103.06+407.283+1105.37+407.32+1107.68+407.356C1109.6+407.386+1112.33+406.415+1111.71+404.594C1111.3+403.409+1109.74+403.207+1108.49+403.213M1062.49+457.149C1064.47+456.157+1062.58+452.367+1060.59+453.359C1058.61+454.351+1060.5+458.141+1062.49+457.149Z" fill="#ff7555" opacity="1" vectornator:blendMode="Lighten"/>
<path d="M672.485+441.19C660.351+440.746+648.201+440.727+636.066+441.133C629.121+460.104+622.175+479.075+615.23+498.046C611.933+496.58+612.531+491.778+613.68+488.357C617.791+476.115+621.902+463.873+626.013+451.63C619.075+465.485+612.136+479.339+605.198+493.194C600.096+491.116+594.994+489.037+589.892+486.959C588.24+486.286+586.431+485.464+585.738+483.82C585.181+482.498+585.503+480.988+585.857+479.599C588.754+468.223+593.267+457.26+599.217+447.141C595.875+446.786+592.532+446.432+589.19+446.078C590.074+435.556+590.958+425.034+591.842+414.512C591.963+413.061+592.132+411.497+593.111+410.418C595.342+407.958+599.302+409.889+602.609+410.2C610.321+410.926+615.123+402.243+617.816+394.98C627.872+367.856+637.929+340.733+647.985+313.609C648.612+311.92+649.332+310.111+650.858+309.153C652.308+308.243+654.147+308.319+655.851+308.476C667.135+309.516+678.207+312.809+688.225+318.104C681.717+323.409+679.097+332.365+679.464+340.753C679.831+349.142+682.774+357.177+685.685+365.053C688.905+373.768+692.126+382.484+695.346+391.2C697.084+395.904+698.927+400.774+702.515+404.278C706.103+407.782+711.972+409.49+716.231+406.842C719.264+415.8+718.444+425.991+714.017+434.348C715.477+435.017+716.17+436.664+716.735+438.168C721.865+451.836+726.995+465.505+732.126+479.174C732.603+480.447+733.079+481.881+732.527+483.123C731.947+484.429+730.457+485.024+729.108+485.494C721.858+488.021+714.609+490.549+707.359+493.076C703.291+476.542+698.776+459.177+686.932+446.945C691.306+460.547+695.68+474.149+700.055+487.752C700.736+489.872+701.423+492.143+700.823+494.288C700.222+496.434+697.756+498.198+695.755+497.22C690.539+480.558+685.323+463.895+680.107+447.233C679.529+445.386+678.854+443.402+677.264+442.298C675.901+441.351+674.143+441.25+672.485+441.19M656.951+385.416C656.356+385.703+656.046+386.356+655.781+386.962C653.177+392.911+650.572+398.861+647.967+404.81C647.555+405.752+647.149+406.872+647.669+407.758C648.313+408.855+649.879+408.833+651.141+408.672C655.666+408.092+660.192+407.513+664.717+406.934C665.618+406.819+666.674+406.594+667.035+405.76C667.316+405.112+667.044+404.371+666.773+403.719C664.571+398.43+662.37+393.14+660.169+387.85C659.587+386.451+658.316+384.758+656.951+385.416M658.752+313.231C655.865+314.509+654.511+317.772+653.425+320.737C650.281+329.321+647.136+337.906+643.992+346.491C643.603+347.553+643.21+348.709+643.539+349.791C643.868+350.873+645.278+351.667+646.17+350.971C646.54+350.682+646.726+350.223+646.897+349.786C650.619+340.236+654.341+330.685+658.063+321.135C659.056+318.588+660.033+315.646+658.752+313.231M640.297+435.319C646.943+434.489+653.59+433.659+660.237+432.83C662.247+432.579+661.16+429.027+659.139+428.884C657.118+428.742+655.417+430.273+653.547+431.053C651.677+431.832+648.747+431.142+648.848+429.119C648.439+430.821+646.286+431.416+644.542+431.26C642.798+431.104+640.989+430.529+639.346+431.136C637.704+431.743+636.833+434.372+638.389+435.175C638.965+435.472+639.654+435.399+640.297+435.319M604.578+421.425C606.692+421.221+608.65+419.826+609.534+417.894C604.901+416.806+600.012+416.823+595.387+417.945C597.234+420.865+601.214+422.225+604.461+421.046L604.578+421.425Z" fill="#ff7555" opacity="1" vectornator:blendMode="Lighten"/>
<path d="M928.541+497.179C926.127+497.983+922.943+496.417+922.847+493.874C910.37+498.619+896.25+498.906+883.59+494.672C884.172+485.662+884.754+476.651+885.336+467.641C885.606+463.47+888.002+457.763+891.935+459.178C896.825+421.624+897.349+383.503+893.494+345.828C891.705+328.347+891.179+310.736+891.922+293.179C904.595+295.734+917.033+299.458+929.025+304.287C927.812+307.26+929.861+310.761+932.698+312.266C935.535+313.77+938.9+313.786+942.111+313.733C964.157+313.368+986.176+311.407+1007.94+307.871C1011.94+307.221+1016.75+306.803+1019.32+309.932C1011.7+357.937+1010.4+406.94+1015.45+455.282C1020.93+457.799+1024.69+463.678+1024.68+469.711C1024.67+475.744+1020.88+481.608+1015.39+484.102C1017.59+485.411+1020.32+485.79+1022.79+485.128C1022.94+486.526+1023.09+487.923+1023.24+489.321C1019.08+493.066+1014.58+496.978+1009.05+497.814C1003.51+498.65+996.927+494.83+997.089+489.235C994.421+490.411+992.862+493.663+993.617+496.48C988.636+497.389+983.536+497.644+978.489+497.236C977.378+494.951+977.059+492.29+977.6+489.807C964.779+488.746+951.852+488.976+939.077+490.492C934.609+491.023+929.108+492.715+928.541+497.179M932.212+459.115C944.781+459.491+957.364+459.409+969.927+458.868C974.237+458.682+979.815+457.275+980.096+452.97C982.384+417.868+981.861+382.582+978.531+347.563C978.47+346.918+978.383+346.217+977.925+345.758C977.401+345.232+976.573+345.2+975.83+345.201C961.502+345.22+947.175+345.24+932.847+345.259C931.767+345.261+930.554+345.317+929.82+346.109C929.213+346.764+929.122+347.731+929.063+348.622C926.723+384.187+926.64+419.9+928.815+455.476C928.885+456.616+929.036+457.909+929.958+458.585C930.59+459.049+931.428+459.092+932.212+459.115M943.503+324.569C944.299+325.727+946.065+324.981+947.363+324.443C949.116+323.717+951.052+323.602+952.946+323.494C966.241+322.738+979.532+321.906+992.818+320.999C995.356+320.826+998.286+320.425+999.615+318.255C997.979+316.764+995.51+316.789+993.3+316.913C977.679+317.789+962.094+319.3+946.596+321.441C944.842+321.684+942.5+323.109+943.503+324.569M967.939+479.639C955.592+478.707+943.115+479.506+930.986+482.004C930.571+482.09+930.133+482.189+929.824+482.48C928.425+483.794+931.261+485.406+933.174+485.245C940.621+484.619+948.068+483.994+955.514+483.368C959.899+483+964.6+482.505+967.939+479.639M923.75+458.229C923.512+455.13+923.275+452.031+923.038+448.932C919.274+451.6+918.112+457.322+920.538+461.246C921.537+460.247+922.537+459.248+923.536+458.249M988.42+351.087C989.521+350.395+990.676+349.644+991.241+348.473C991.806+347.302+991.469+345.598+990.242+345.167C988.959+344.714+987.589+345.968+987.387+347.314C987.185+348.66+987.777+349.985+988.354+351.217M918.544+485.109C919.937+485.402+921.504+485.645+922.689+484.857C923.875+484.068+923.947+481.814+922.56+481.493C920.96+482.467+919.361+483.442+917.761+484.416M999.454+484.943C998.402+482.805+994.932+482.491+993.512+484.405C994.99+485.313+996.836+485.599+998.519+485.181L999.454+484.943Z" fill="#ff7555" opacity="1" vectornator:blendMode="Lighten"/>
</g>
<g id="LogoOutline copy" vectornator:layerName="LogoOutline copy">
<path d="M2.33111+0.955992C1.55171+0.955992+0.967288+1.17245+0.577586+1.60535C0.18789+2.03825-0.00605032+2.68441-0.00605032+3.54462L-0.00605032+12.4506C-0.00605032+13.3164+0.18789+13.9658+0.577586+14.3987C0.967283+14.8316+1.55171+15.048+2.33111+15.048L13.62+15.048C14.3994+15.048+14.9838+14.83+15.3735+14.3943C15.7632+13.9586+15.9584+13.3108+15.9584+12.4506L15.9584+3.54462C15.9584+2.68441+15.7632+2.03825+15.3735+1.60535C14.9838+1.17245+14.3994+0.955992+13.62+0.955992L2.33111+0.955992ZM2.34678+2.30467L13.6056+2.30467C13.973+2.30467+14.2572+2.41458+14.4582+2.63522C14.6593+2.85586+14.7598+3.18386+14.7598+3.61955L14.7598+12.3757C14.7598+12.8113+14.6593+13.141+14.4582+13.3644C14.2572+13.5878+13.973+13.6994+13.6056+13.6994L2.34678+13.6994C1.97445+13.6994+1.68882+13.5878+1.49025+13.3644C1.29168+13.141+1.19256+12.8113+1.19256+12.3757L1.19256+3.61955C1.19256+3.18386+1.29168+2.85586+1.49025+2.63522C1.68882+2.41458+1.97445+2.30467+2.34678+2.30467Z" opacity="1" fill="#ff7555"/>
<path d="M4.79584+12.3824C4.63741+12.1822+4.57732+11.9276+4.63266+11.6909C4.80101+11.6831+4.96433+11.6147+5.07417+11.506C4.6931+11.5223+4.3543+11.1765+4.44205+10.8609C4.58701+10.7666+4.75485+10.6979+4.93193+10.6603C5.07199+8.90832+5.21091+7.13579+4.85238+5.40642C4.71982+4.76697+4.52296+4.09218+4.79441+3.48525C4.82492+3.41702+4.90223+3.33727+4.97732+3.3727C5.56683+3.65083+6.34383+3.61139+6.89018+3.27559C7.08875+3.3978+7.09936+3.68464+6.91021+3.81722C8.28158+4.11536+9.69205+4.28335+11.107+4.31706C11.2036+4.65748+11.1572+5.02587+10.9782+5.34124C10.3198+5.29687+9.66138+5.25251+9.00299+5.20814C9.57923+5.32656+10.1555+5.44497+10.7317+5.56339C10.8679+5.59137+11.0031+5.77295+10.8635+5.783C9.67514+5.62055+8.48679+5.45809+7.29844+5.29564C7.15629+5.27621+6.98402+5.26613+6.89582+5.36286C6.84628+5.41718+6.83965+5.49044+6.83524+5.55907C6.73241+7.16057+6.7791+8.76898+6.97473+10.3642C6.98279+10.43+6.99493+10.5023+7.05358+10.5457C7.11336+10.59+7.2012+10.5895+7.28041+10.5862C7.71699+10.568+8.1788+10.532+8.53148+10.3126C8.88417+10.0931+9.05824+9.62533+8.7761+9.34157C8.39318+9.32326+8.01027+9.30495+7.62735+9.28663C7.64031+8.80194+7.65328+8.31725+7.66624+7.83256C8.66392+7.78005+9.66773+7.81191+10.658+7.92752C10.7365+7.93668+10.8215+7.94919+10.8751+7.99876C10.9338+8.05297+10.9368+8.13422+10.9365+8.20787C10.9349+8.65194+10.9332+9.09601+10.9316+9.54008C10.801+9.57158+10.6705+9.60308+10.54+9.63458C10.5442+10.2994+10.7774+10.962+11.2034+11.5196C10.7503+11.9818+9.9359+12.1583+9.27777+11.9369C8.54684+11.6909+7.67312+11.7794+7.03061+12.1644C6.81017+12.2965+6.52446+12.312+6.25505+12.323C5.76865+12.3428+5.28225+12.3626+4.79584+12.3824M8.85034+8.10764C8.62091+8.08277+8.38964+8.07026+8.15835+8.0702C8.0451+8.07017+7.88543+8.14756+7.95706+8.22212C7.981+8.24704+8.0221+8.25329+8.05957+8.25785C8.34177+8.29226+8.68593+8.30561+8.85034+8.10764Z" fill="#ff7555" opacity="1" vectornator:blendMode="Lighten"/>
<path d="M559.453+228.726L841.905+228.726C840.686+219.962+838.081+213.228+834.091+208.524C830.101+203.819+823.95+201.467+815.638+201.467L585.72+201.467C577.407+201.467+571.256+203.819+567.266+208.524C563.276+213.228+560.672+219.962+559.453+228.726Z" opacity="0" fill="#ff7555"/>
<path d="M583.401+184.066L817.957+184.066C817.478+175.365+815.055+168.736+810.689+164.178C806.322+159.621+800.011+157.342+791.755+157.342L609.602+157.342C601.347+157.342+595.036+159.621+590.669+164.178C586.302+168.736+583.879+175.365+583.401+184.066Z" opacity="0" fill="#ff7555"/>
</g>
</svg>
