<?xml version="1.0" encoding="UTF-8" standalone="no"?> <!-- Created with Vectornator for iOS (http://vectornator.io/) --><!DOCTYPE svg PUBLIC "-//W3C//DTD SVG 1.1//EN" "http://www.w3.org/Graphics/SVG/1.1/DTD/svg11.dtd">
<svg style="fill-rule:nonzero;clip-rule:evenodd;stroke-linecap:round;stroke-linejoin:round;" xmlns:vectornator="http://vectornator.io" xmlns:xlink="http://www.w3.org/1999/xlink" xmlns="http://www.w3.org/2000/svg" xml:space="preserve" version="1.1" viewBox="0 0 1200 800">
<metadata>
<vectornator:setting key="DimensionsVisible" value="1"/>
<vectornator:setting key="PencilOnly" value="1"/>
<vectornator:setting key="SnapToPoints" value="0"/>
<vectornator:setting key="OutlineMode" value="0"/>
<vectornator:setting key="CMYKEnabledKey" value="0"/>
<vectornator:setting key="RulersVisible" value="1"/>
<vectornator:setting key="SnapToEdges" value="0"/>
<vectornator:setting key="GuidesVisible" value="1"/>
<vectornator:setting key="DisplayWhiteBackground" value="0"/>
<vectornator:setting key="doHistoryDisabled" value="0"/>
<vectornator:setting key="SnapToGuides" value="1"/>
<vectornator:setting key="TimeLapseWatermarkDisabled" value="0"/>
<vectornator:setting key="Units" value="Points"/>
<vectornator:setting key="DynamicGuides" value="0"/>
<vectornator:setting key="IsolateActiveLayer" value="0"/>
<vectornator:setting key="SnapToGrid" value="0"/>
</metadata>
<defs/>
<g id="LogoOutline Negative copy" vectornator:layerName="LogoOutline Negative copy" visibility="hidden">
<path d="M102.726+80.9153L1097.27+80.9153C1138.83+80.9153+1172.53+112.959+1172.53+152.486L1172.53+638.444C1172.53+677.971+1138.83+710.014+1097.27+710.014L102.726+710.014C61.1655+710.014+27.474+677.971+27.474+638.444L27.474+152.486C27.474+112.959+61.1655+80.9153+102.726+80.9153Z" opacity="1" fill="#ff7555"/>
<path d="M234.081+114.116L965.919+114.116C1080.78+114.116+1173.9+196.841+1173.9+298.888L1173.9+448.562C1173.9+550.608+1080.78+633.333+965.919+633.333L234.081+633.333C119.215+633.333+26.0982+550.608+26.0982+448.562L26.0982+298.888C26.0982+196.841+119.215+114.116+234.081+114.116Z" opacity="0" fill="#ff7555"/>
<path d="M43.0525-77.306C82.7554-82.6593+122.488-51.2011+126.219-11.2846C132.043+28.71+100.237+68.8981+60.0059+72.5406C77.6904+66.8953+99.4381+55.3956+107.386+36.4042C102.243+52.3101+97.6706+68.4309+92.6377+84.3782C89.357+102.131+86.1869+119.936+83.9321+137.854C60.6434+360.734+61.9018+585.302+67.01+809.038C67.9878+823.538+68.6192+838.065+70.0421+852.532C69.0952+853.177+68.5308+848.058+67.9058+847.702C21.1863+840.564-26.4278+847.847-73.5008+846.543C-73.1025+845.358-73.752+844.123-73.4847+842.902C-69.7114+721.181-60.1605+599.403-38.9437+479.396C-31.0536+402.58-18.5905+326.34-2.61146+250.794C9.89269+161.138+33.3423+73.6334+51.7045-14.861C63.2515-50.1017+72.4915-86.0971+84.4961-121.165C91.2351-139.312+103.309-155.166+117.987-167.653C148.533-179.39+186.466-183.61+216.435-168.084C233.992-154.271+246.969-134.538+250.102-112.224C254.412-79.2363+254.191-45.8199+254.212-12.6032C250.377+151.571+250.424+315.924+262.057+479.827C275.15+626.751+291.109+773.488+295.512+921.035C295.554+922.88+295.573+924.726+295.554+926.571C292.456+927.145+289.357+927.719+286.259+928.294C239.748+930.311+193.107+927.976+146.668+925.282C146.489+924.668+146.457+924.029+146.393+923.396C146.037+816.689+156.162+710.269+168.233+604.345C177.347+483.79+198.444+364.83+218.29+245.722C231.218+187.468+244.37+129.282+255.883+70.7223C269.287+22.3381+281.86-26.2299+294.297-74.8645C301.5-95.2212+308.564-115.697+317.876-135.216C326.371-145.543+331.197-162.48+347.197-162.937C384.977-164.051+422.458-151.574+456.083-135.233C459.045-132.727+462.007-130.222+464.969-127.716C465.661-125.272+466.352-122.828+467.044-120.384C472.119-102.037+470.877-82.7876+470.47-63.9771C468.822-39.8566+465.975-15.8377+464.396+8.29006C430.296+311.574+438.365+617.322+439.616+921.914C439.621+923.087+440.438+925.462+438.586+923.884C433.656+917.421+430.337+909.909+426.307+902.904C422.274+901.172+418.242+899.441+414.209+897.709C371.101+893.441+332.852+919.835+290.705+923.056C298.936+789.471+311.381+656.113+322.438+522.716C345.933+354.653+368.267+185.498+415.825+22.2222C421.466+0.810516+425.349-21.0641+432.108-42.1773C440.917-67.7018+451.916-92.3912+461.157-117.751C467.839-129.46+477.833-138.797+487.349-148.151C509.033-161.462+536.138-155.659+559.28-150.6C573.416-146.776+589.009-143.838+600.443-133.846C610.467-119.487+616.707-102.656+618.653-85.2698C620.152-68.194+619.584-51.0242+618.726-33.9309C595.79+261.233+605.111+557.518+602.108+853.233C555.443+861.381+507.005+857.51+459.956+853.869C456.838+852.959+453.721+852.05+450.604+851.14C452.25+803.177+456.051+755.344+459.716+707.507C464.583+653.498+474.817+600.196+483.023+546.646C491.606+480.846+501.218+415.133+516.741+350.551C537.508+232.531+572.231+117.618+609.163+3.82573C614.239-11.3702+621.727-25.6017+626.968-40.7289C630.976-52.2116+634.036-64.0143+638.658-75.2844C642.996-85.2542+647.776-95.1959+654.465-103.832C667.481-123.948+691.043-132.697+714.463-131.189C721.364-131.054+728.266-130.92+735.167-130.785C740.968-129.956+746.769-129.126+752.57-128.297C775.552-125.298+789.835-105.126+799.125-85.9157C805.697-68.2171+806.131-49.0406+804.494-30.4467C802.891-12.3975+800.245+5.54815+797.366+23.4327C783.652+90.1446+776.133+157.834+769.611+225.563C737.201+456.389+742.096+689.869+731.367+922.138C701.361+933.814+668.158+933.612+636.808+939.087C618.349+938.351+597.217+946.178+579.399+937.334C579.211+935.334+579.023+933.335+578.835+931.336C578.051+922.616+577.831+913.854+578.027+905.103C583.87+779.598+593.03+653.543+620.748+530.709C653.01+350.026+707.68+173.617+780.028+5.06308C793.402-20.4476+806.175-46.1863+819.407-71.7338C827.751-85.9292+837.662-99.5308+850.693-109.793C871.774-126.809+901.777-131.769+926.074-117.859C954.27-107.633+981.589-86.9024+984.552-54.986C987.9-33.3432+984.055-11.4003+980.194+9.91791C958.911+97.4914+939.223+185.479+924.062+274.371C912.68+376.252+899.415+477.984+891.723+580.24C886.821+664.722+884.985+749.353+879.663+833.803C879.416+836.624+879.142+839.442+878.845+842.257C864.366+853.759+845.106+856.555+828.467+863.285C803.162+870.621+777.089+880.551+750.166+878.221C746.164+876.706+742.163+875.191+738.162+873.676C729.921+859.508+723.039+844.01+722.916+827.342C722.513+714.112+736.509+600.813+762.413+490.617C802.634+292.435+870.403+99.1914+964.796-79.7031C981.747-103.251+992.637-132.083+1017.42-149.049C1043.21-168.669+1082.31-168.413+1108.93-150.717C1127.56-134.684+1147.05-114.227+1151.06-89.0108C1153.4-73.269+1152.34-57.2613+1150.01-41.5894C1140.77+8.50201+1128.54+57.9959+1120.14+108.257C1064.4+354.107+1038.08+605.413+1018.29+856.406C1017.15+868.824+1015.43+881.179+1013.69+893.525C996.951+904.795+975.415+904.75+956.692+909.905C928.917+913.893+899.599+921.799+871.556+914.22C852.51+907.932+860.742+884.584+856.83+869.74C861.447+751.011+874.701+632.177+902.18+516.427C941.547+317.365+1005.46+122.605+1096-59.1437C1107.78-79.8955+1119.4-100.845+1132.21-120.948C1143.42-137.707+1160.68-149.879+1180.77-153.277C1221.94-166.161+1261.3-131.124+1281.99-98.9022C1287.04-81.9047+1287.57-63.9534+1285.14-46.4751C1277.28-0.593857+1265.63+44.5794+1257.78+90.4834C1234.06+183.773+1220.13+279.031+1203.35+373.708C1193.2+459.934+1183+546.188+1174.03+632.544C1167.83+710.557+1166.38+788.845+1161.08+866.91C1143.43+876.223+1122.63+876.692+1103.74+881.664C1075.45+885.951+1046.38+893.684+1017.52+889.061C1014.11+887.289+1010.69+885.518+1007.28+883.747C1006.18+873.842+1005.09+863.897+1005.17+853.916C1008.04+802.971+1012.75+752.147+1019.1+701.517C1058.04+455.493+1128.61+213.591+1238.94-10.1324C1252.39-33.5348+1263.31-58.3647+1278.27-80.8927C1292.59-101.367+1306.33-123.739+1328.46-136.729C1358.74-156.294+1400.59-149.532+1429.28-130.337C1446.42-116.054+1457.89-95.7239+1461.61-73.7828C1464.09-54.336+1462.89-34.6116+1459.78-15.3104C1451.06+31.3594+1440.75+77.7068+1432.6+124.49C1400.11+265.271+1373.91+407.825+1361.36+551.894C1345.84+661.923+1340.05+772.91+1335.37+883.826C1332.16+884.459+1328.95+885.092+1325.74+885.725C1277.96+884.984+1230.22+878.383+1183.28+869.768C1183.29+869.312+1183.3+868.856+1183.31+868.4C1184.16+848.918+1186.44+829.534+1188.98+810.21C1234.76+500.031+1326.01+196.405+1459.45-87.1462C1507.7-87.0896+1558.41-88.5299+1604.25-71.4511C1607.21-68.5807+1610.17-65.7104+1613.13-62.84C1612.09-51.4659+1611.01-40.0333+1608.35-28.8992C1570.05+84.1328+1549.58+202.486+1539.1+321.168C1517.86+501.017+1518.41+682.781+1526.57+863.442C1500.32+860.733+1477.35+844.603+1453+835.821C1435.51+830.205+1413.01+821.741+1395.76+833.72C1390.87+840.452+1385.98+847.185+1380.63+853.561C1378.44+855.281+1377.09+858.384+1374.03+858.677C1377.17+710.233+1387.29+561.115+1417.95+415.574C1436.73+293.898+1469.84+175.06+1506.93+57.8588C1514.24+38.1938+1521.32+18.4125+1530.61-0.428473C1545.65-8.82211+1563.71-8.64444+1580.08-11.9899C1607.76-13.8251+1639.82-22.9066+1665.52-7.65379C1667.28-4.78211+1669.03-1.91042+1670.79+0.961269C1679.62+15.3247+1683.02+32.2245+1683.21+48.8974C1682.06+71.8904+1678.93+94.7232+1676.17+117.562C1670.81+157.807+1662.77+197.675+1658.89+238.124C1643.27+433.931+1642.43+631.291+1656.51+827.221C1659.68+853.965+1662.31+880.87+1667.32+907.338C1667.85+909.869+1668.37+912.405+1668.85+914.947C1663.14+911.128+1661.11+902.826+1656.7+897.745C1652.91+895.986+1649.13+894.226+1645.34+892.467C1606+887.086+1564.82+893.653+1527.25+905.474C1526.02+907.795+1525.86+911.792+1523.9+913.418C1521.47+739.845+1525.83+566.146+1535.51+392.816C1535.67+381.394+1535.5+369.968+1535.55+358.544C1535.18+359.133+1535.84+354.932+1535.96+357.413C1542.95+398.356+1591.4+427.753+1630.48+410.28C1636.15+407.55+1641.82+404.821+1647.49+402.092C1656.03+396.339+1667.86+394.15+1675.09+386.604C1674.78+389.751+1673.19+392.7+1672.38+395.748C1666.62+412.24+1660.94+428.776+1656.23+445.603C1633.96+539.178+1614.4+633.472+1587.86+725.971C1570.59+797.891+1549.84+869.224+1523.3+938.251C1509.77+964.797+1499.1+993.126+1480.32+1016.64C1463.81+1037.6+1443.94+1056.9+1419.37+1068.05C1394.49+1079.21+1365.21+1081.72+1339.53+1071.71C1316.58+1063.29+1298.65+1045.94+1284.24+1026.73C1275+1014.46+1268.13+1000.59+1262.31+986.438C1220.78+853.12+1218.36+710.511+1228.79+572.261C1278.01+570.623+1327.62+577.524+1376.01+586.315C1379.13+587.576+1382.25+588.837+1385.36+590.098C1367.56+699.848+1369.7+811.929+1350.08+921.428C1347.79+931.572+1344.65+941.523+1340.85+951.199C1334.15+962.87+1328.69+977.44+1315.11+982.723C1282+993.62+1242.88+1002.58+1209.65+987.806C1200.47+979.462+1191.49+970.541+1185.24+959.713C1181.83+952.729+1178.59+945.638+1176.15+938.248C1145.29+836.338+1151.42+728.686+1145.09+623.619C1151.72+651.172+1180+673.688+1208.8+670.617C1214.51+669.71+1220.21+668.804+1225.91+667.897C1232.4+665.957+1238.9+664.016+1245.4+662.075C1256.73+656.738+1273.26+656.351+1280.74+645.149C1259.48+728.509+1258.8+816.147+1235.38+899.194C1223.83+916.304+1211.84+936.477+1191.24+943.573C1170.08+949.817+1147.65+944.355+1127.36+937.872C1112.47+932.801+1096.09+928.724+1084.12+917.751C1035.32+828.71+1051.67+721.179+1015.69+628.278C1025.5+644.036+1047.13+650.874+1064.35+645.526C984.969+718.982+952.42+837.02+853.391+889.753C837.147+896.503+819.756+901.11+802.111+901.718C785.483+902.307+768.892+899.105+753.316+893.388C647.203+845.249+619.449+721.676+563.455+630.251C561.435+627.028+558.567+624.446+555.44+622.335C554.481+620.704+559.681+622.641+561.117+621.741C470.197+678.514+428.191+786.71+341.522+848.493C327.729+857.443+312.898+865.044+297.123+869.816C286.652+872.899+275.723+874.099+264.838+874.251C252.856+874.47+240.841+872.712+229.46+868.945C214.63+864.164+200.822+856.446+188.685+846.708C110.989+777.409+107.418+666.331+91.0295+570.535C108.369+600.661+150.117+625.337+183.198+604.518C186.181+602.817+189.164+601.115+192.147+599.413C198.159+595.619+204.846+592.46+209.854+587.322C206.258+594.525+201.43+601.197+198.217+608.652C178.514+662.527+164.18+718.209+148.58+773.346C144.976+774.808+141.373+776.269+137.77+777.731C94.0386+782.382+48.7124+779.598+6.24488+767.92C2.71921+765.776-0.806453+763.633-4.33212+761.489C-8.4571+746.877-9.6982+731.627-9.16406+716.496C-3.77138+619.999+4.27418+523.152+27.7458+429.11C37.8138+351.436+61.5158+276.752+78.9868+200.663C91.7711+160.356+104.654+120.124+115.135+79.158C126.952+47.0039+139.995+15.2901+150.644-17.2907C155.399-29.3763+161.958-40.6997+169.813-51.0296C171.166-52.7908+172.519-54.5521+173.871-56.3133C197.876-67.0499+225.425-62.8065+250.833-63.6062C268.113-61.8854+288.134-61.0396+301.714-48.3675C308.411-37.1758+314.432-25.2243+316.691-12.2531C317.669-3.41798+318.188+5.54312+317.117+14.3975C316.127+20.5211+314.966+26.6282+313.308+32.61C293.755+93.7302+280.362+156.722+269.635+219.9C265.646+195.425+251.521+169.837+228.363+158.514C199.028+151.319+168.223+162.174+141.241+173.293C141.279+173.177+133.936+181.657+136.815+177.321C169.892+91.3072+202.202+4.56126+243.926-77.7317C247.112-84.6295+249.472-91.8685+252.511-98.8304C268.433-107.542+286.968-109.673+304.087-114.792C323.437-119.81+342.866-124.11+362.983-122.16C369.212-119.7+375.44-117.239+381.668-114.779C385.505-109.86+389.342-104.941+393.179-100.022C395.503-78.9039+405.047-56.923+401.004-35.6113C396.287-21.5018+391.305-7.48051+385.946+6.39851C295.335+229.865+225.6+464.242+204.625+705.264C203.546+731.339+203.943+757.459+204.078+783.547C204.428+792.431+206.599+801.083+207.99+809.825C203.569+800.624+194.706+794.954+186.499+789.38C154.094+763.099+103.167+774.915+80.3495+807.994C93.6+761.912+105.475+714.861+106.189+666.594C115.181+705.777+158.708+738.441+199.427+723.321C204.082+722.535+210.227+719.984+214.623+719.475C196.487+740.678+179.784+763.744+171.667+790.845C171.689+784.68+169.611+778.529+167.593+772.806C169.198+773.795+174.433+781.473+169.659+777.226C183.921+782.349+201.813+786.843+217.757+789.531C236.423+792.008+255.3+792.352+274.078+793.486C353.599+794.201+433.241+797.778+512.025+809.216C582.777+821.21+652.49+838.701+722.212+855.546C737.232+859.229+752.238+862.969+767.286+866.537C774.039+868.165+780.82+869.672+787.59+871.227C820.013+876.434+847.744+902.949+853.276+935.482C859.983+968.719+842.555+1004.88+812.378+1020.34C797.365+1028.36+779.736+1031.35+762.917+1028.73C728.279+1021.77+694.174+1012.34+659.799+1004.22C632.842+997.485+605.759+991.274+578.647+985.206C561.144+981.275+543.629+977.398+526.088+973.643C504.242+968.672+482.044+965.483+459.794+962.988C447.396+961.568+434.972+960.388+422.549+959.211C307.178+944.547+178.4+971.851+75.5769+904.644C39.9709+876.781+12.6836+834.29+12.9878+787.887C17.054+715.807+59.2709+651.427+108.457+601.114C115.75+595.257+122.645+588.56+131.336+584.782C155.835+573.608+184.768+568.943+210.068+580.584C233.171+589.821+249.057+610.73+259.229+632.654C263.47+641.775+263.948+651.944+265.117+661.759C264.664+735.033+249.7+808.313+223.292+876.517C216.468+888.556+206.421+898.341+196.328+907.621C178.023+921.733+153.679+926.549+131.022+924.033C102.568+918.941+74.9283+899.936+62.7613+873.29C52.6863+851.818+49.1477+828.001+46.2913+804.666C43.6423+768.642+44.7479+732.397+45.7823+696.318C67.3342+438.505+140.981+187.521+237.84-51.4807C242.456-63.4693+246.696-75.5982+250.782-87.7766C259.048-75.9111+260.483-60.4265+265.897-47.2779C269.868-43.1701+273.84-39.0623+277.812-34.9545C283.906-32.6295+289.999-30.3044+296.092-27.9794C330.211-22.3753+363.766-34.2797+397.843-34.4754C397.752-34.213+397.66-33.9507+397.569-33.6884C394.68-26.176+391.816-18.6444+388.378-11.3608C345.542+71.8596+314.8+160.59+279.553+247.12C273.936+258.316+266.637+268.573+258.741+278.263C233.459+294.231+201.979+301.456+172.201+299.682C141.486+294.465+122.658+264.783+113.523+237.339C110.538+227.791+111.136+217.64+111.181+207.774C121.587+134.137+138.093+61.0998+160.194-9.95268C160.45-10.0209+160.278-10.9899+160.679-10.7523C158.904+9.0952+164.646+34.3057+184.219+43.1776C189.569+44.5665+194.918+45.9555+200.267+47.3445C231.123+50.6327+263.013+51.9591+293.647+46.3685C295.347+44.4604+296.995+42.5039+298.725+40.623C288.828+70.1307+277.607+99.4591+266.086+128.465C256.95+166.955+244.377+204.456+232.366+242.121C215.957+314.527+193.102+385.45+183.721+459.356C161.264+545.918+155.403+635.919+148.835+724.373C148.509+723.433+148.395+722.444+148.212+721.472C100.147+714.702+50.6222+710.327+2.19564+714.786C1.55311+716.061+1.139+717.465+0.215137+718.579C0.570719+711.257+3.4615+704.063+4.96949+696.863C28.0954+624.475+39.9416+543.578+90.7548+484.225C109.998+469.626+132.694+455.796+157.735+456.697C183.234+459.252+208.527+471.432+224.907+491.401C231.535+501.065+237.866+511.107+241.923+522.163C261.055+588.472+255.141+660.835+287.571+723.409C287.666+723.74+287.891+724.034+287.927+724.382C278.036+715.895+262.47+715.475+250.255+719.072C253.987+716.425+258.011+713.894+261.194+710.469C343.571+624.891+404.351+503.459+525.894+468.118C538.453+465.149+551.442+463.876+564.333+464.692C628.663+466.243+682.745+513.124+710.837+568.317C716.307+577.427+722.084+586.372+726.737+595.945C752.407+647.672+772.165+705.577+813.031+747.43C805.155+744.396+795.069+741.409+787.5+746.757C785.949+747.265+790.081+743.543+789.756+743.484C856.941+670.285+894.851+570.885+978.75+512.973C993.315+504.12+1009.07+496.925+1025.75+493.169C1042.23+489.735+1059.44+489.409+1075.99+492.617C1092.53+496.235+1108.31+503.556+1121.67+513.972C1131.06+521.336+1139.42+530.047+1146.25+539.842C1201.84+629.042+1190.2+738.678+1219.03+836.271C1218.12+835.771+1218.03+834.481+1217.39+833.785C1191.93+825.489+1165.75+817.275+1138.81+816.141C1133.37+816.812+1127.94+817.483+1122.51+818.154C1105.75+821.895+1097.4+837.986+1085.34+848.461C1085.3+847.935+1085.48+847.429+1085.55+846.912C1106.51+759.634+1104.35+667.388+1135.3+582.622C1138.98+574.317+1143.65+566.492+1148.69+558.951C1175.15+540.004+1209.35+528.435+1242.11+531.375C1261.83+535.327+1277.33+550.568+1289.4+565.76C1293.62+573.551+1297.38+581.667+1299.62+590.264C1313.56+689.745+1299.6+792.845+1327.09+890.597C1318.15+875.271+1302.94+861.447+1283.58+864.178C1277.45+864.406+1271.32+864.634+1265.2+864.861C1241.68+869.254+1207.34+866.101+1194.61+890.497C1212.8+781.082+1210.63+669.144+1229.84+559.793C1233.33+559.026+1236.82+558.259+1240.31+557.492C1289.81+560.817+1339.97+569.834+1386.62+586.757C1377.6+700.714+1379.97+817.41+1409.38+928.463C1409.89+931.22+1411.39+933.559+1413.65+935.173C1396.18+922.502+1368.47+915.034+1347.77+927.989C1352.51+923.351+1357.18+918.399+1360.13+912.355C1367.14+895.992+1376.06+880.519+1382.79+864.039C1423.03+745.642+1451.22+623.733+1481.12+502.458C1495.27+437.417+1508.14+370.95+1537.03+310.533C1555.85+292.551+1580.3+279.469+1605.69+273.664C1635.96+268.677+1665.18+288.354+1682.07+311.979C1686.86+323.404+1693.06+334.989+1693.37+347.659C1694.14+364.457+1693.69+381.288+1693.61+398.097C1683.85+568.212+1680.09+738.619+1681.48+909.011C1681.33+918.066+1680.65+927.103+1679.82+936.117C1678.33+947.388+1674.73+958.292+1670.03+968.611C1647.12+987.736+1614.67+987.516+1586.89+992.845C1568.61+993.612+1546.32+996.522+1531.1+983.236C1525.27+972.411+1518.88+961.736+1514.84+950.063C1507.38+917.16+1504.31+883.499+1500.06+850.085C1497.67+825.134+1495.81+800.131+1494.3+775.112C1492.63+738.849+1491+702.58+1489.81+666.298C1489.45+478.283+1485.4+288.645+1519.08+102.856C1521.7+83.7193+1523.71+64.4965+1525.78+45.3022C1527.47+58.0766+1532.07+70.2692+1539.77+80.7102C1543.35+82.1214+1546.93+83.5326+1550.51+84.9438C1589.95+89.5353+1629.82+81.8189+1668.54+74.8538C1669.05+74.1597+1669.45+73.3721+1670.09+72.7819C1625.52+192.497+1593.93+317.357+1572.96+443.383C1542.9+583.47+1534.43+727.12+1530.8+870.042C1526.11+889.669+1514.72+906.825+1505.01+924.205C1499.95+927.163+1494.89+930.122+1489.84+933.081C1461.94+938.25+1436.75+919.534+1414.78+905.899C1399.67+895.117+1381.88+886.935+1369.53+872.578C1356.48+584.68+1364.45+292.588+1431.95+11.253C1439.89-16.1363+1448.59-43.419+1457.45-70.4731C1459.78-69.8579+1457.07-65.4024+1458.61-64.5842C1504.68-43.6481+1558.89-49.2499+1604.58-27.5008C1478.67+238.94+1391.54+523.796+1346.28+815.166C1343.29+835.582+1340.69+856.069+1339.27+876.66C1338.12+887.907+1335.95+899.021+1333.56+910.06C1329.9+911.64+1326.23+913.221+1322.57+914.801C1276.31+915.683+1231.48+899.441+1188.37+884.368C1185.26+882.432+1182.14+880.496+1179.03+878.56C1183.92+763.563+1190.03+648.495+1206.09+534.415C1219.35+382.81+1247.56+232.943+1281.46+84.7461C1288.04+37.9675+1302.22-7.66737+1307.24-54.5849C1312.52-24.0888+1340.51-1.24981+1371.47-0.643244C1390.01+4.21418+1409.21-1.90654+1422.63-15.0574C1415.86-5.6342+1408.6+3.5525+1402.91+13.7311C1285.46+231.136+1215.13+471.359+1174.3+714.307C1167.46+763.408+1163.75+812.94+1160.03+862.297C1157.84+860.643+1159.22+856.8+1157.68+854.91C1107.81+844.118+1056.41+861.877+1006.11+855.319C1011.37+776.717+1012.92+697.897+1019.32+619.362C1028.59+529.984+1039.11+440.708+1049.84+351.493C1067.09+253.688+1081.57+155.295+1106.04+58.932C1113.92+16.3745+1122.95-26.0819+1132.37-68.2626C1132.71-52.8326+1147.56-44.3008+1158.02-35.3499C1162.93-31.6337+1167.85-27.9175+1172.76-24.2013C1197.19-4.91512+1238.81-7.13712+1258.23-32.2837C1258.47-32.2725+1258.96-33.6276+1259.08-32.8728C1251.81-17.0976+1241.2-3.13166+1233.34+12.3376C1149.47+181.435+1090.11+362.501+1053.58+547.573C1028.03+653.479+1015.95+762.269+1011.21+870.946C1011.23+877.147+1006.78+868.495+1007.06+867.582C959.408+857.543+910.239+869.872+862.059+865.414C862.091+864.93+862.123+864.446+862.155+863.961C884.462+600.467+910.115+336.282+969.171+78.0702C977.511+28.1398+989.675-21.029+998.992-70.7593C1001.17-62.3243+1009.72-55.7678+1014.61-48.6471C1036.14-13.6865+1092.11-4.27989+1119.3-37.12C1110.99-20.0588+1098.37-5.51506+1089.73+11.3757C1009.61+173.093+947.825+344.56+912.754+521.767C889.306+618.988+877.16+718.905+875.995+818.873C875.7+819.103+876.296+820.145+875.707+820.108C874.263+810.738+868.368+802.799+864.196+794.504C860.44+793.412+856.684+792.319+852.927+791.226C809.41+791.965+768.794+810.244+727.215+821.106C726.776+822.687+727.273+817.872+727.059+819.262C731.771+736.303+734.055+653.224+738.826+570.26C747.458+460.246+760.84+350.633+774.351+241.143C789.588+162.326+803.508+83.1192+824.623+5.60439C828.26-9.15488+831.255-24.104+833.428-39.1272C837.384-12.7683+862.495+1.03932+885.131+10.2094C906.63+23.1051+936.16+20.5655+953.264+2.0976C941.785+23.7847+931.462+46.1488+919.376+67.5877C914.684+78.0786+911.63+89.2043+906.929+99.6944C829.589+277.307+784.573+466.919+751.713+657.289C741.215+743.005+732.927+829.157+730.256+915.504C730.204+914.594+730.281+918.332+729.894+916.927C679.761+915.416+628.658+925.154+579.143+915.695C589.946+679.938+585.59+442.985+618.475+208.703C625.307+138.28+633.193+67.8923+647.406-1.48521C649.946-17.3764+652.365-33.3329+653.626-49.375C656.743-27.5313+674.168-6.66468+696.766-3.74138C702.06-3.06402+707.354-2.38666+712.647-1.7093C719.008-1.57482+725.369-1.44033+731.729-1.30585C749.681+0.190536+769.778-3.20842+779.706-19.4394C775.855-7.31291+772.258+4.92949+767.707+16.8314C763.009+30.1097+756.502+42.652+751.847+55.9464C717.696+162.684+684.758+270.203+665.591+380.836C650.525+442.837+641.484+505.98+633.193+569.173C614.956+666.023+605.347+764.136+601.928+862.571C598.71+863.453+595.491+864.335+592.272+865.217C544.756+865.112+496.303+860.346+450.424+847.904C453.275+554.683+444.335+260.898+466.748-31.788C467.719-44.3488+468.034-56.9458+468.142-69.5372C470.287-61.8005+473.125-53.9538+478.252-47.5268C489.122-40.4889+502.477-39.0708+514.7-35.9439C540.005-30.7889+574.427-23.232+592.178-48.0983C594.156-50.0128+596.156-51.9057+598.068-53.8868C599.691-55.2643+596.142-47.359+596.247-46.7111C590.218-29.654+582.356-13.3009+576.414+3.78799C570.83+22.3683+567.651+41.5705+562.478+60.2649C516.656+216.46+495.73+378.454+472.928+539.256C462.113+670.949+449.701+802.575+441.585+934.45C427.276+946.324+408.8+951.594+392.598+960.043C368.495+970.008+342.411+985.009+315.039+979.875C310.939+977.264+306.839+974.654+302.739+972.044C298.154+956.349+289.247+941.346+288.259+924.778C287.032+612.411+279.251+298.903+314.532-12.0847C315.956-37.4287+319.766-62.8048+320.27-88.0869C321.29-86.611+321.347-84.6652+321.929-83.0134C357.199-69.5265+394.562-58.4908+432.476-56.5393C436.024-57.2662+439.572-57.9932+443.12-58.7201C446.944-62.2555+449.734-67.2506+454.166-70.0878C447.511-55.6561+442.243-40.5968+437.155-25.5613C432.132-6.87069+428.078+12.0592+423.508+30.8603C417.57+53.5279+410.163+75.7891+404.527+98.5402C392.368+157.071+380.083+215.568+366.657+273.827C347.641+388.746+327.105+503.463+318.451+619.776C304.755+727.831+298.216+836.601+295.803+945.406C292.532+946.768+289.261+948.13+285.99+949.492C238.675+951.855+190.179+945.339+144.686+932.557C140.838+787.839+125.304+643.883+112.142+499.818C101.075+338.115+98.0421+175.92+103.284+13.9187C103.407-20.0986+103.623-54.1442+101.465-88.0996C108.275-61.1619+135.475-41.863+163.563-45.9048C169.537-46.2428+175.51-46.5807+181.484-46.9187C197.413-47.1416+216.852-48.5561+224.118-65.0748C216.009-32.8181+204.892-1.39975+195.739+30.5578C179.927+112.982+156.888+193.912+145.933+277.273C130.293+350.986+118.198+425.379+110.47+500.335C89.6679+616.899+80.8557+735.212+76.9398+853.451C76.3906+864.252+74.7185+874.987+71.8622+885.421C68.5246+886.995+65.1869+888.569+61.8492+890.142C20.1764+898.231-23.3638+901.056-65.486+894.934C-68.85+893.388-72.214+891.842-75.578+890.296C-79.8522+875.084-81.0183+859.325-81.9888+843.633C-84.1464+816.93-84.0149+790.142-85.5213+763.407C-87.8739+546.627-89.2107+329.173-65.013+113.405C-62.199+93.4859-58.8408+73.6361-54.9711+53.8944C-46.0086+24.211-40.084-7.12181-24.7229-34.3707C-10.1784-57.7092+16.0723-73.3449+43.0525-77.306L43.0525-77.306Z" opacity="0" fill="#ff7555"/>
<path d="M464.891+218.314C446.237+218.314+432.249+222.918+422.922+232.126C413.963+240.97+409.431+254.116+409.078+271.345L437.891+271.345C438.46+263.919+440.675+258.071+444.766+254.032C449.518+249.339+456.354+247.001+465.266+247.001L734.734+247.001C743.527+247.001+750.329+249.339+755.141+254.032C759.282+258.071+761.532+263.919+762.109+271.345L790.922+271.345C790.567+254.116+786.005+240.97+777.047+232.126C767.72+222.918+751.316+209.369+732.662+209.369L464.891+218.314Z" opacity="1" fill="#ffffff"/>
<path d="M733.335+568.639C751.989+568.639+765.977+564.034+775.304+554.826C784.262+545.982+788.795+532.836+789.148+515.608L760.335+515.608C759.766+523.034+757.55+528.881+753.46+532.92C748.708+537.613+741.871+539.951+732.96+539.951L463.492+539.951C454.699+539.951+447.897+537.613+443.085+532.92C438.944+528.881+436.694+523.033+436.117+515.608L407.304+515.608C407.659+532.836+412.221+545.982+421.179+554.826C430.506+564.034+448.483+581.561+467.137+581.561L733.335+568.639Z" opacity="1" fill="#ffffff"/>
<path d="M651.633+164.096L954.434+164.096C953.127+156.016+950.335+149.808+946.057+145.471C941.78+141.135+935.186+138.966+926.275+138.966L679.793+138.966C670.881+138.966+664.287+141.135+660.01+145.471C655.733+149.808+652.94+156.016+651.633+164.096Z" opacity="0" fill="#ff7555"/>
<path d="M686.565+114.728L919.502+114.728C919.027+107.243+916.621+101.539+912.284+97.6185C907.947+93.6976+901.68+91.7372+893.482+91.7372L712.586+91.7372C704.387+91.7372+698.12+93.6976+693.783+97.6185C689.446+101.539+687.04+107.243+686.565+114.728Z" opacity="0" fill="#ff7555"/>
</g>
<g id="Text Negative copy" vectornator:layerName="Text Negative copy" visibility="hidden">
<path d="M763.222+574.174C761.971+575.604+761.842+577.667+761.775+579.566C761.441+589.064+761.106+598.562+760.772+608.06C582.669+608.061+404.566+608.062+226.463+608.062C225.05+580.75+225.029+553.365+226.402+526.051C233.25+526.051+240.098+526.052+246.946+526.053C247.424+546.72+247.901+567.388+248.379+588.055C411.917+588.062+575.454+588.068+738.991+588.075C742.011+567.512+742.894+546.636+741.621+525.892C748.289+526.217+754.957+526.542+761.625+526.867C761.599+532.904+761.573+538.94+761.548+544.977C761.54+546.85+761.591+548.896+762.796+550.331C764.311+552.135+766.997+552.251+769.352+552.225C783.494+552.064+797.636+551.903+811.778+551.743C813.873+543.743+814.45+535.349+813.467+527.138C819.833+524.53+827.214+524.507+833.595+527.073C833.597+541.869+833.598+556.665+833.599+571.461C812.308+571.718+791.016+571.975+769.724+572.231C767.39+572.26+764.76+572.417+763.222+574.174Z" opacity="0" fill="#000000"/>
<path d="M740.044+95.5672C738.582+94.1396+736.314+94.0529+734.271+94.053C572.252+94.057+410.234+94.061+248.215+94.065C248.225+107.696+248.235+121.328+248.246+134.959C248.25+140.783+248.166+146.94+245.145+151.919C242.123+156.897+235.04+159.893+230.277+156.541C226.126+153.62+225.701+147.737+225.673+142.661C225.567+122.986+225.461+103.311+225.355+83.6354C225.328+78.6166+226.899+71.8713+231.918+71.8952C251.946+71.9905+271.974+72.0858+292.002+72.1812C294.049+72.1909+296.307+72.1242+297.82+70.7451C299.517+69.1988+299.633+66.6134+299.628+64.3175C299.583+42.9169+299.539+21.5163+299.494+0.115674C474.512+0.077118+649.53+0.038562+824.548+6e-06C827.508-0.000646+830.93+0.220345+832.675+2.61186C833.848+4.21905+833.891+6.35904+833.888+8.34863C833.802+57.5149+833.717+106.681+833.632+155.847C827.75+160.319+818.606+156.331+815.066+149.846C811.526+143.361+811.949+135.529+812.381+128.154C814.449+92.8488+814.536+57.4282+812.644+22.1136C648.539+22.064+484.435+22.0143+320.331+21.9647C319.011+38.6321+319.081+55.4094+320.539+72.0652C465.226+72.0616+609.912+72.0579+754.599+72.0543C756.478+72.0543+758.547+72.1237+759.937+73.3883C761.505+74.815+761.616+77.2016+761.615+79.3216C761.609+104.572+761.602+129.823+761.596+155.074C755.044+156.619+748.13+156.609+741.583+155.045C741.604+137.198+741.625+119.351+741.646+101.504C741.648+99.3953+741.553+97.0407+740.044+95.5672Z" opacity="0" fill="#000000"/>
<path d="M315.695+414.664C305.979+415.79+296.019+414.763+286.737+411.677C283.451+410.585+281.578+415.378+281.54+418.841C281.416+429.991+282.317+441.152+284.228+452.138C306.408+451.157+328.588+450.176+350.768+449.195C352.01+451.707+352.232+454.706+351.374+457.374C345.219+455.421+338.097+456.877+333.201+461.088C339.933+458.665+348.035+460.295+353.078+465.37C358.121+470.446+359.659+478.785+356.469+485.189C333.418+481.872+310.071+480.615+286.796+481.438C286.735+485.531+282.97+488.806+278.981+489.721C274.991+490.636+270.835+489.75+266.838+488.865C266.072+487.025+265.306+485.186+264.541+483.346C260.444+489.171+251.603+490.979+245.549+487.23C239.494+483.482+237.172+474.762+240.56+468.498C243.634+467.798+246.708+467.099+249.782+466.399C247.685+463.695+243.844+462.492+240.579+463.515C239.569+459.138+239.315+454.587+239.832+450.125C244.623+451.654+247.479+444.908+247.942+439.901C248.414+434.803+248.885+429.706+249.357+424.608C249.626+421.703+249.861+418.615+248.525+416.021C247.19+413.428+243.644+411.756+241.25+413.423C238.429+402.273+236.842+387.799+246.64+381.775C248.55+380.601+248.869+378+248.922+375.76C249.197+364.212+247.755+352.624+244.66+341.495C242.231+332.764+240.621+323.805+239.859+314.775C239.754+313.535+239.683+312.211+240.295+311.128C241.147+309.62+243.012+309.073+244.694+308.659C258.117+305.359+271.541+302.059+284.965+298.759C285.467+303.205+284.974+307.761+283.532+311.997C308.581+313.666+333.715+314.055+358.804+313.162C360.854+323.369+360.102+334.125+356.651+343.947C333.925+343.149+311.199+342.35+288.473+341.552C286.956+341.499+285.313+341.482+284.084+342.373C282.494+343.527+282.192+345.735+282.024+347.693C281.25+356.744+280.476+365.795+279.702+374.846C279.474+377.513+279.445+380.664+281.568+382.295C282.962+383.366+284.864+383.409+286.622+383.405C296.092+383.384+305.563+383.363+315.033+383.343C315.885+393.757+316.106+404.223+315.695+414.664M330.742+333.371C330.075+334.038+329.409+334.704+328.742+335.371C328.097+334.74+327.452+334.108+326.807+333.477C325.051+334.624+323.294+335.771+321.538+336.918C332.986+337.676+344.485+337.675+355.933+336.915C354.184+335.764+352.434+334.612+350.685+333.461C350.053+334.082+349.422+334.704+348.79+335.326C346.189+332.534+341.175+332.555+338.598+335.368C337.683+333.064+333.707+333.086+332.817+335.4C332.125+334.724+331.434+334.047+330.742+333.371Z" opacity="1" fill="#ffffff"/>
<path d="M112.791+490.9C109.926+486.642+108.84+481.226+109.84+476.193C112.884+476.027+115.837+474.572+117.823+472.259C110.933+472.605+104.808+465.249+106.394+458.536C109.015+456.531+112.049+455.069+115.251+454.27C117.783+417.004+120.295+379.3+113.813+342.515C111.416+328.914+107.857+314.56+112.765+301.65C113.316+300.199+114.714+298.503+116.072+299.256C126.73+305.172+140.777+304.333+150.655+297.191C154.245+299.79+154.437+305.892+151.017+308.712C175.811+315.053+201.312+318.627+226.893+319.344C228.639+326.585+227.801+334.421+224.564+341.129C212.66+340.185+200.757+339.241+188.854+338.298C199.272+340.817+209.69+343.335+220.108+345.854C222.57+346.449+225.014+350.312+222.491+350.525C201.006+347.07+179.521+343.614+158.036+340.159C155.466+339.746+152.352+339.531+150.757+341.589C149.862+342.744+149.742+344.303+149.662+345.762C147.803+379.828+148.647+414.04+152.184+447.972C152.33+449.371+152.549+450.909+153.609+451.833C154.69+452.775+156.278+452.763+157.71+452.693C165.603+452.306+173.953+451.542+180.329+446.874C186.706+442.205+189.853+432.255+184.752+426.219C177.829+425.83+170.906+425.44+163.983+425.051C164.217+414.741+164.452+404.431+164.686+394.122C182.724+393.005+200.872+393.682+218.776+396.141C220.195+396.336+221.731+396.602+222.701+397.657C223.762+398.81+223.816+400.538+223.811+402.105C223.781+411.55+223.752+420.996+223.722+430.442C221.362+431.112+219.002+431.782+216.641+432.452C216.718+446.593+220.934+460.688+228.636+472.548C220.445+482.38+205.72+486.134+193.822+481.423C180.607+476.192+164.81+478.073+153.194+486.263C149.209+489.073+144.043+489.403+139.172+489.636C130.378+490.057+121.585+490.479+112.791+490.9M186.094+399.973C181.946+399.444+177.765+399.178+173.583+399.176C171.536+399.176+168.649+400.822+169.944+402.408C170.377+402.938+171.12+403.071+171.797+403.168C176.899+403.9+183.121+404.184+186.094+399.973Z" opacity="1" fill="#ffffff"/>
<path d="M696.254+464.362C694.519+461.312+690.254+460.022+687.12+461.6C684.829+460.872+685.152+457.125+687.195+455.858C689.238+454.591+691.867+455.051+694.208+455.599C697.527+402.319+696.987+348.798+692.595+295.596C695.44+292.614+699.169+298.337+699.315+302.455C699.843+317.257+700.371+332.058+700.898+346.859C706.349+330.67+707.839+313.164+705.203+296.288C714.164+295.152+723.235+294.89+732.247+295.506C728.607+346.714+727.298+398.088+728.326+449.414C728.376+451.945+728.553+454.763+730.389+456.506C732.38+458.396+735.488+458.253+738.221+457.989C762.681+455.629+787.142+453.268+811.603+450.907C811.089+460.473+810.575+470.039+810.061+479.605C809.933+481.978+809.618+484.699+807.65+486.03C806.424+486.858+804.852+486.915+803.373+486.945C779.487+487.418+755.6+487.892+731.713+488.366C731.565+492.802+731.416+497.237+731.268+501.672C716.538+496.306+701.51+491.758+686.277+488.057C686.031+480.803+685.785+473.549+685.539+466.295C689.11+465.65+692.682+465.006+696.254+464.362M737.799+466.45C739.393+467.82+741.725+467.776+743.823+467.646C753.378+467.053+762.915+466.196+772.451+465.338C780.63+464.603+788.809+463.867+796.989+463.132C798.185+463.024+799.658+462.692+799.941+461.524C800.36+459.788+797.825+459.031+796.041+459.121C785.487+459.655+774.968+460.73+764.455+461.804C758.106+462.453+751.756+463.102+745.406+463.751C742.667+464.031+739.673+464.433+737.799+466.45M780.632+479.372C785.669+479.392+790.706+479.412+795.743+479.433C800.137+479.45+804.53+479.468+808.924+479.486C800.939+473.208+788.667+473.158+780.632+479.372Z" opacity="1" fill="#ffffff"/>
<path d="M1030.78+426.082C1029.12+415.196+1029.09+404.066+1030.67+393.17C1049.31+393.41+1067.93+394.329+1086.51+395.926C1093.05+407.583+1091.92+423.107+1083.75+433.691C1079.98+438.577+1082.14+445.593+1084.44+451.321C1087.58+459.138+1090.72+466.954+1093.86+474.771C1088.32+473.62+1082.41+478.739+1082.76+484.385C1074.22+483.099+1065.68+481.813+1057.14+480.527C1046.99+478.999+1036.11+477.572+1026.88+482.078C1012.72+488.998+996.625+491.92+980.93+490.423C979.471+490.283+977.908+490.059+976.836+489.06C973.357+485.818+978.054+478.129+973.853+475.9C977.041+476.655+980.637+475.024+982.17+472.129C979.746+471.791+977.321+471.453+974.897+471.115C972.084+467.459+970.94+462.567+971.839+458.042C980.144+458.158+982.785+446.976+982.74+438.671C982.58+409.023+982.42+379.375+982.26+349.727C982.221+342.472+981.34+333.766+974.884+330.459C975.219+322.207+975.553+313.956+975.888+305.705C975.954+304.081+976.09+302.292+977.242+301.148C979.068+299.335+982.099+300.229+984.553+301.002C995.347+304.403+1007.6+302.842+1017.2+296.843C1018.64+300.81+1018.71+305.269+1017.37+309.275C1040.4+314.849+1064+318.12+1087.68+319.022C1093.71+319.252+1094.17+328.046+1092.64+333.888C1092.01+336.272+1091.17+338.931+1088.97+340.037C1087.54+340.755+1085.85+340.636+1084.25+340.5C1074+339.624+1063.75+338.749+1053.5+337.873C1065.8+340.479+1077.88+344.103+1089.57+348.698C1066.65+348.703+1044+344.097+1021.53+339.511C1016.93+338.573+1014.74+344.939+1014.56+349.629C1013.24+384.212+1014.26+418.884+1017.6+453.331C1023.39+452.509+1029.17+451.687+1034.95+450.865C1041.15+449.982+1048.15+448.614+1051.49+443.312C1054.71+438.191+1052.82+430.805+1047.99+427.153C1043.16+423.502+1036.2+423.402+1030.78+426.082M1046.69+399.335C1044.08+399.347+1041.47+399.36+1038.85+399.372C1037.41+399.379+1035.5+399.792+1035.41+401.234C1035.32+402.784+1037.41+403.345+1038.96+403.37C1041.27+403.406+1043.57+403.442+1045.88+403.478C1047.81+403.509+1050.53+402.537+1049.91+400.717C1049.51+399.531+1047.94+399.329+1046.69+399.335M1000.69+453.272C1002.68+452.28+1000.78+448.49+998.798+449.482C996.813+450.474+998.708+454.264+1000.69+453.272Z" opacity="1" fill="#ffffff"/>
<path d="M490.025+494.626C490.717+481.194+489.946+467.687+487.732+454.421C485.344+467.547+484.736+480.996+485.929+494.284C480.496+496.717+473.994+496.63+468.628+494.051C475.754+477.34+465.167+458.788+455+443.733C441.766+424.139+428.528+404.538+414.521+385.489C413.828+422.422+413.136+459.354+412.443+496.287C411.098+498.036+408.066+497.317+406.823+495.494C405.579+493.671+405.6+491.298+405.667+489.091C406.105+474.744+406.542+460.397+406.98+446.05C401.59+461.298+399.216+477.605+400.034+493.756C394.59+495.568+388.849+497.403+383.214+496.319C377.58+495.235+372.282+490.11+373.16+484.44C383.105+420.148+387.339+354.974+385.794+289.936C393.416+292.385+401.038+294.834+408.66+297.283C412.553+298.533+416.573+299.856+419.605+302.599C422.637+305.341+424.408+309.925+422.673+313.627C416.555+326.683+424.812+341.627+432.78+353.644C445.506+372.834+458.231+392.025+470.957+411.215C468.441+378.52+465.924+345.825+463.408+313.13C463.18+310.17+462.987+307.029+464.361+304.397C465.736+301.764+469.303+300.049+471.779+301.687C470.552+311.734+471.476+322.038+474.469+331.707C476.138+324.475+476.405+316.923+475.251+309.592C474.295+303.513+478.463+297.553+483.796+294.482C489.128+291.41+495.425+290.606+501.534+289.862C497.745+355.662+500.518+421.839+509.798+487.092C510.392+491.27+506.59+495.046+502.474+495.979C498.359+496.912+494.089+495.765+490.025+494.626M439.364+379.373C437.428+379.067+437.715+382.32+438.888+383.891C448.069+396.192+457.25+408.493+466.432+420.793C467.142+421.745+467.912+422.743+469.021+423.166C470.131+423.589+471.659+423.139+471.94+421.986C472.165+421.068+471.552+420.176+470.974+419.43C460.918+406.451+450.862+393.473+440.807+380.495C440.424+380.001+439.982+379.47+439.364+379.373M471.429+453.289C470.321+448.038+468.138+443.015+465.053+438.623C463.172+435.944+460.965+433.505+458.606+431.236C456.873+433.946+458.6+437.465+460.309+440.19C463.377+445.083+466.594+450.131+471.429+453.289M427.299+355.241C427.352+350.421+424.482+345.685+420.185+343.501C420.132+348.321+423.002+353.057+427.299+355.241Z" opacity="1" fill="#ffffff"/>
<path d="M610.69+437.312C598.556+436.869+586.407+436.85+574.271+437.255C567.326+456.226+560.381+475.197+553.436+494.168C550.138+492.703+550.737+487.9+551.885+484.479C555.997+472.237+560.108+459.995+564.219+447.753C557.28+461.607+550.342+475.462+543.403+489.316C538.302+487.238+533.2+485.16+528.098+483.082C526.446+482.409+524.636+481.586+523.943+479.942C523.386+478.621+523.709+477.111+524.063+475.721C526.96+464.345+531.473+453.382+537.423+443.263C534.08+442.909+530.738+442.554+527.396+442.2C528.279+431.678+529.163+421.156+530.047+410.634C530.169+409.183+530.338+407.619+531.316+406.541C533.548+404.08+537.508+406.012+540.815+406.323C548.527+407.048+553.328+398.365+556.021+391.102C566.078+363.979+576.134+336.855+586.191+309.731C586.817+308.042+587.538+306.233+589.064+305.276C590.513+304.366+592.353+304.442+594.057+304.599C605.341+305.638+616.413+308.931+626.431+314.226C619.922+319.532+617.302+328.487+617.669+336.876C618.037+345.265+620.98+353.299+623.89+361.175C627.111+369.891+630.331+378.607+633.551+387.322C635.29+392.026+637.133+396.896+640.721+400.4C644.309+403.904+650.178+405.613+654.437+402.965C657.47+411.922+656.649+422.114+652.222+430.471C653.682+431.139+654.376+432.787+654.94+434.29C660.071+447.959+665.201+461.628+670.331+475.296C670.809+476.569+671.285+478.004+670.733+479.246C670.152+480.551+668.663+481.146+667.313+481.616C660.064+484.144+652.814+486.671+645.565+489.198C641.496+472.664+636.982+455.3+625.137+443.067C629.511+456.669+633.886+470.272+638.26+483.874C638.942+485.995+639.629+488.266+639.028+490.411C638.428+492.556+635.962+494.32+633.961+493.343C628.745+476.68+623.529+460.018+618.313+443.356C617.734+441.508+617.059+439.524+615.469+438.42C614.107+437.473+612.348+437.373+610.69+437.312M595.157+381.539C594.561+381.826+594.252+382.479+593.987+383.084C591.382+389.034+588.777+394.983+586.173+400.933C585.76+401.874+585.355+402.994+585.875+403.881C586.519+404.978+588.085+404.955+589.346+404.794C593.872+404.215+598.397+403.636+602.922+403.057C603.824+402.941+604.879+402.716+605.241+401.882C605.521+401.235+605.249+400.494+604.978+399.842C602.777+394.552+600.576+389.262+598.375+383.972C597.792+382.573+596.522+380.88+595.157+381.539M596.958+309.353C594.071+310.632+592.717+313.894+591.631+316.859C588.486+325.444+585.342+334.029+582.197+342.613C581.808+343.676+581.415+344.831+581.744+345.914C582.073+346.996+583.484+347.79+584.375+347.093C584.745+346.805+584.932+346.346+585.102+345.908C588.824+336.358+592.546+326.808+596.269+317.258C597.261+314.711+598.239+311.768+596.958+309.353M578.502+431.442C585.149+430.612+591.796+429.782+598.443+428.952C600.453+428.701+599.365+425.15+597.344+425.007C595.323+424.864+593.622+426.395+591.752+427.175C589.882+427.955+586.952+427.265+587.054+425.241C586.644+426.943+584.492+427.539+582.748+427.382C581.004+427.226+579.194+426.651+577.552+427.258C575.909+427.865+575.039+430.495+576.595+431.298C577.171+431.595+577.859+431.522+578.502+431.442M542.783+417.548C544.897+417.344+546.856+415.948+547.739+414.017C543.106+412.928+538.217+412.946+533.593+414.067C535.439+416.987+539.419+418.347+542.667+417.168L542.783+417.548Z" opacity="1" fill="#ffffff"/>
<path d="M866.747+493.302C864.332+494.106+861.149+492.54+861.053+489.997C848.576+494.742+834.455+495.029+821.796+490.795C822.378+481.784+822.96+472.774+823.542+463.763C823.811+459.592+826.208+453.885+830.14+455.301C835.03+417.747+835.555+379.625+831.699+341.951C829.91+324.469+829.385+306.858+830.128+289.301C842.801+291.857+855.238+295.581+867.23+300.409C866.017+303.383+868.067+306.883+870.904+308.388C873.741+309.893+877.106+309.909+880.316+309.856C902.362+309.49+924.382+307.529+946.145+303.993C950.143+303.344+954.959+302.925+957.53+306.055C949.908+354.059+948.601+403.063+953.654+451.405C959.137+453.922+962.899+459.801+962.887+465.834C962.875+471.866+959.089+477.731+953.596+480.225C955.792+481.534+958.523+481.912+960.992+481.251C961.144+482.648+961.295+484.046+961.446+485.443C957.287+489.189+952.788+493.1+947.254+493.936C941.719+494.772+935.133+490.952+935.294+485.357C932.626+486.534+931.068+489.785+931.822+492.602C926.841+493.511+921.741+493.766+916.694+493.358C915.583+491.073+915.265+488.412+915.805+485.93C902.985+484.868+890.058+485.098+877.283+486.615C872.815+487.145+867.313+488.838+866.747+493.302M870.418+455.238C882.987+455.614+895.569+455.531+908.132+454.99C912.443+454.805+918.021+453.397+918.301+449.092C920.59+413.99+920.066+378.705+916.737+343.686C916.676+343.04+916.588+342.34+916.131+341.881C915.606+341.355+914.779+341.323+914.036+341.324C899.708+341.343+885.38+341.362+871.052+341.382C869.972+341.383+868.76+341.439+868.026+342.232C867.419+342.887+867.328+343.854+867.269+344.745C864.929+380.31+864.846+416.023+867.021+451.598C867.091+452.739+867.242+454.031+868.163+454.707C868.796+455.171+869.633+455.214+870.418+455.238M881.708+320.691C882.504+321.85+884.271+321.104+885.569+320.566C887.321+319.839+889.257+319.724+891.151+319.616C904.446+318.861+917.737+318.029+931.023+317.121C933.562+316.948+936.491+316.547+937.82+314.377C936.184+312.887+933.715+312.911+931.505+313.035C915.884+313.911+900.299+315.422+884.801+317.564C883.047+317.806+880.706+319.231+881.708+320.691M906.145+475.762C893.797+474.83+881.32+475.628+869.192+478.127C868.776+478.213+868.339+478.312+868.029+478.602C866.631+479.916+869.467+481.528+871.379+481.367C878.826+480.742+886.273+480.116+893.72+479.491C898.105+479.123+902.806+478.627+906.145+475.762M861.955+454.352C861.718+451.253+861.481+448.154+861.243+445.054C857.48+447.722+856.318+453.444+858.743+457.368C859.743+456.369+860.742+455.37+861.742+454.371M926.625+347.21C927.726+346.518+928.882+345.767+929.446+344.596C930.011+343.424+929.674+341.721+928.448+341.289C927.164+340.837+925.795+342.091+925.593+343.437C925.391+344.783+925.982+346.107+926.559+347.34M856.749+481.231C858.143+481.524+859.709+481.768+860.895+480.979C862.08+480.191+862.152+477.937+860.765+477.615C859.166+478.59+857.566+479.564+855.967+480.539M937.659+481.066C936.607+478.927+933.137+478.613+931.718+480.528C933.195+481.435+935.042+481.722+936.724+481.304L937.659+481.066Z" opacity="1" fill="#ffffff"/>
</g>
<g id="LogoOutline copy" vectornator:layerName="LogoOutline copy">
<path d="M465.392+222.96C446.738+222.96+432.751+227.564+423.424+236.772C414.465+245.617+409.932+258.762+409.58+275.991L438.392+275.991C438.962+268.565+441.177+262.718+445.267+258.679C450.02+253.985+456.856+251.647+465.767+251.647L735.236+251.647C744.028+251.647+750.83+253.985+755.642+258.679C759.783+262.717+762.033+268.565+762.611+275.991L791.424+275.991C791.069+258.762+786.507+245.617+777.549+236.772C768.222+227.564+751.818+214.015+733.164+214.015L465.392+222.96Z" opacity="1" fill="#ff7555"/>
<path d="M734.84+573.063C753.494+573.063+767.482+568.459+776.809+559.251C785.767+550.406+790.3+537.261+790.653+520.032L761.84+520.032C761.271+527.458+759.055+533.305+754.965+537.344C750.213+542.038+743.376+544.376+734.465+544.376L464.996+544.376C456.204+544.376+449.402+542.038+444.59+537.344C440.449+533.306+438.199+527.457+437.621+520.032L408.809+520.032C409.164+537.261+413.726+550.406+422.684+559.251C432.011+568.459+449.987+585.985+468.641+585.985L734.84+573.063Z" opacity="1" fill="#ff7555"/>
<path d="M651.633+164.096L954.434+164.096C953.127+156.016+950.335+149.808+946.057+145.471C941.78+141.135+935.186+138.966+926.275+138.966L679.793+138.966C670.881+138.966+664.287+141.135+660.01+145.471C655.733+149.808+652.94+156.016+651.633+164.096Z" opacity="0" fill="#ff7555"/>
<path d="M686.565+114.728L919.502+114.728C919.027+107.243+916.621+101.539+912.284+97.6185C907.947+93.6976+901.68+91.7372+893.482+91.7372L712.586+91.7372C704.387+91.7372+698.12+93.6976+693.783+97.6185C689.446+101.539+687.04+107.243+686.565+114.728Z" opacity="0" fill="#ff7555"/>
</g>
<g id="Text copy" vectornator:layerName="Text copy">
<path d="M763.222+574.174C761.971+575.604+761.842+577.667+761.775+579.566C761.441+589.064+761.106+598.562+760.772+608.06C582.669+608.061+404.566+608.062+226.463+608.062C225.05+580.75+225.029+553.365+226.402+526.051C233.25+526.051+240.098+526.052+246.946+526.053C247.424+546.72+247.901+567.388+248.379+588.055C411.917+588.062+575.454+588.068+738.991+588.075C742.011+567.512+742.894+546.636+741.621+525.892C748.289+526.217+754.957+526.542+761.625+526.867C761.599+532.904+761.573+538.94+761.548+544.977C761.54+546.85+761.591+548.896+762.796+550.331C764.311+552.135+766.997+552.251+769.352+552.225C783.494+552.064+797.636+551.903+811.778+551.743C813.873+543.743+814.45+535.349+813.467+527.138C819.833+524.53+827.214+524.507+833.595+527.073C833.597+541.869+833.598+556.665+833.599+571.461C812.308+571.718+791.016+571.975+769.724+572.231C767.39+572.26+764.76+572.417+763.222+574.174Z" opacity="0" fill="#000000"/>
<path d="M740.044+95.5672C738.582+94.1396+736.314+94.0529+734.271+94.053C572.252+94.057+410.234+94.061+248.215+94.065C248.225+107.696+248.235+121.328+248.246+134.959C248.25+140.783+248.166+146.94+245.145+151.919C242.123+156.897+235.04+159.893+230.277+156.541C226.126+153.62+225.701+147.737+225.673+142.661C225.567+122.986+225.461+103.311+225.355+83.6354C225.328+78.6166+226.899+71.8713+231.918+71.8952C251.946+71.9905+271.974+72.0858+292.002+72.1812C294.049+72.1909+296.307+72.1242+297.82+70.7451C299.517+69.1988+299.633+66.6134+299.628+64.3175C299.583+42.9169+299.539+21.5163+299.494+0.115674C474.512+0.077118+649.53+0.038562+824.548+6e-06C827.508-0.000646+830.93+0.220345+832.675+2.61186C833.848+4.21905+833.891+6.35904+833.888+8.34863C833.802+57.5149+833.717+106.681+833.632+155.847C827.75+160.319+818.606+156.331+815.066+149.846C811.526+143.361+811.949+135.529+812.381+128.154C814.449+92.8488+814.536+57.4282+812.644+22.1136C648.539+22.064+484.435+22.0143+320.331+21.9647C319.011+38.6321+319.081+55.4094+320.539+72.0652C465.226+72.0616+609.912+72.0579+754.599+72.0543C756.478+72.0543+758.547+72.1237+759.937+73.3883C761.505+74.815+761.616+77.2016+761.615+79.3216C761.609+104.572+761.602+129.823+761.596+155.074C755.044+156.619+748.13+156.609+741.583+155.045C741.604+137.198+741.625+119.351+741.646+101.504C741.648+99.3953+741.553+97.0407+740.044+95.5672Z" opacity="0" fill="#000000"/>
<path d="M316.197+419.31C306.48+420.436+296.52+419.409+287.238+416.323C283.953+415.231+282.08+420.025+282.042+423.487C281.918+434.637+282.819+445.798+284.729+456.784C306.909+455.803+329.09+454.822+351.27+453.841C352.511+456.354+352.734+459.352+351.876+462.02C345.72+460.067+338.598+461.523+333.702+465.735C340.435+463.311+348.536+464.941+353.58+470.017C358.623+475.092+360.161+483.431+356.971+489.836C333.92+486.519+310.572+485.261+287.298+486.084C287.236+490.177+283.472+493.452+279.482+494.367C275.493+495.282+271.336+494.396+267.34+493.511C266.574+491.671+265.808+489.832+265.042+487.992C260.946+493.817+252.105+495.625+246.05+491.877C239.996+488.128+237.674+479.408+241.062+473.145C244.136+472.445+247.21+471.745+250.284+471.045C248.187+468.342+244.345+467.138+241.081+468.161C240.071+463.784+239.817+459.234+240.334+454.771C245.124+456.3+247.981+449.554+248.444+444.547C248.916+439.449+249.387+434.352+249.858+429.255C250.127+426.35+250.363+423.261+249.027+420.668C247.691+418.074+244.146+416.402+241.752+418.07C238.931+406.919+237.344+392.445+247.142+386.421C249.051+385.248+249.371+382.647+249.424+380.406C249.698+368.858+248.257+357.27+245.161+346.141C242.732+337.41+241.123+328.451+240.361+319.421C240.256+318.181+240.185+316.857+240.796+315.774C241.648+314.266+243.513+313.719+245.195+313.306C258.619+310.005+272.043+306.705+285.466+303.405C285.969+307.851+285.476+312.407+284.033+316.643C309.082+318.312+334.217+318.701+359.305+317.809C361.356+328.016+360.603+338.771+357.152+348.593C334.426+347.795+311.7+346.997+288.974+346.198C287.458+346.145+285.814+346.128+284.586+347.019C282.995+348.173+282.693+350.381+282.526+352.339C281.752+361.39+280.978+370.441+280.204+379.492C279.976+382.159+279.947+385.31+282.069+386.941C283.464+388.013+285.365+388.055+287.123+388.051C296.594+388.03+306.065+388.01+315.535+387.989C316.386+398.403+316.607+408.869+316.197+419.31M331.243+338.017C330.577+338.684+329.91+339.351+329.244+340.017C328.599+339.386+327.954+338.754+327.309+338.123C325.552+339.27+323.796+340.417+322.039+341.564C333.488+342.322+344.986+342.322+356.434+341.562C354.685+340.41+352.936+339.258+351.187+338.107C350.555+338.729+349.923+339.35+349.292+339.972C346.691+337.18+341.677+337.201+339.099+340.015C338.184+337.711+334.208+337.732+333.319+340.046C332.627+339.37+331.935+338.694+331.243+338.017Z" opacity="1" fill="#ff7555"/>
<path d="M113.292+495.546C110.428+491.288+109.341+485.872+110.342+480.839C113.386+480.673+116.338+479.218+118.324+476.906C111.435+477.251+105.309+469.896+106.896+463.182C109.517+461.177+112.551+459.716+115.753+458.916C118.285+421.65+120.796+383.947+114.314+347.162C111.918+333.56+108.359+319.206+113.266+306.297C113.818+304.845+115.216+303.149+116.573+303.903C127.231+309.819+141.279+308.98+151.157+301.837C154.747+304.436+154.939+310.538+151.519+313.358C176.313+319.7+201.813+323.273+227.395+323.99C229.14+331.231+228.303+339.067+225.065+345.775C213.162+344.831+201.259+343.888+189.355+342.944C199.774+345.463+210.192+347.982+220.61+350.5C223.072+351.096+225.516+354.958+222.992+355.172C201.508+351.716+180.023+348.261+158.538+344.805C155.968+344.392+152.853+344.177+151.259+346.235C150.363+347.39+150.243+348.949+150.164+350.408C148.304+384.474+149.149+418.686+152.685+452.618C152.831+454.017+153.051+455.555+154.111+456.479C155.192+457.421+156.78+457.409+158.212+457.339C166.105+456.953+174.454+456.188+180.831+451.52C187.207+446.851+190.354+436.901+185.253+430.866C178.33+430.476+171.407+430.087+164.485+429.697C164.719+419.387+164.953+409.078+165.188+398.768C183.225+397.651+201.374+398.328+219.278+400.788C220.697+400.982+222.233+401.248+223.203+402.303C224.263+403.456+224.318+405.184+224.313+406.751C224.283+416.197+224.253+425.642+224.224+435.088C221.863+435.758+219.503+436.428+217.143+437.098C217.219+451.24+221.436+465.334+229.138+477.194C220.947+487.026+206.222+490.78+194.323+486.07C181.108+480.838+165.312+482.72+153.696+490.909C149.71+493.719+144.545+494.049+139.674+494.282C130.88+494.704+122.086+495.125+113.292+495.546M186.596+404.619C182.448+404.09+178.266+403.824+174.085+403.822C172.037+403.822+169.15+405.468+170.445+407.054C170.878+407.584+171.621+407.717+172.299+407.814C177.401+408.546+183.623+408.83+186.596+404.619Z" opacity="1" fill="#ff7555"/>
<path d="M696.755+469.008C695.02+465.958+690.755+464.669+687.621+466.246C685.33+465.518+685.654+461.771+687.697+460.504C689.74+459.237+692.369+459.698+694.709+460.245C698.028+406.965+697.489+353.445+693.097+300.242C695.941+297.26+699.67+302.983+699.817+307.102C700.345+321.903+700.872+336.704+701.4+351.505C706.85+335.317+708.34+317.811+705.704+300.934C714.665+299.798+723.737+299.536+732.748+300.153C729.108+351.36+727.799+402.734+728.827+454.061C728.878+456.592+729.055+459.409+730.89+461.152C732.881+463.042+735.99+462.899+738.722+462.636C763.183+460.275+787.644+457.914+812.105+455.553C811.591+465.119+811.076+474.685+810.562+484.251C810.435+486.624+810.12+489.345+808.151+490.676C806.926+491.504+805.354+491.561+803.875+491.591C779.988+492.065+756.102+492.539+732.215+493.013C732.066+497.448+731.918+501.883+731.769+506.318C717.04+500.952+702.012+496.404+686.779+492.703C686.533+485.449+686.286+478.195+686.04+470.941C689.612+470.297+693.184+469.652+696.755+469.008M738.3+471.096C739.895+472.466+742.226+472.423+744.324+472.293C753.88+471.699+763.417+470.842+772.953+469.984C781.132+469.249+789.311+468.513+797.49+467.778C798.686+467.67+800.16+467.338+800.442+466.171C800.862+464.434+798.326+463.677+796.542+463.767C785.988+464.301+775.47+465.376+764.957+466.45C758.607+467.1+752.258+467.749+745.908+468.398C743.168+468.678+740.175+469.079+738.3+471.096M781.133+484.018C786.171+484.038+791.208+484.059+796.245+484.079C800.638+484.097+805.032+484.114+809.425+484.132C801.441+477.854+789.168+477.805+781.133+484.018Z" opacity="1" fill="#ff7555"/>
<path d="M1031.28+430.728C1029.62+419.843+1029.59+408.713+1031.17+397.816C1049.81+398.056+1068.44+398.975+1087.01+400.573C1093.56+412.229+1092.43+427.753+1084.26+438.337C1080.48+443.223+1082.64+450.239+1084.94+455.967C1088.08+463.784+1091.22+471.601+1094.36+479.417C1088.82+478.266+1082.91+483.386+1083.27+489.032C1074.72+487.745+1066.18+486.459+1057.64+485.173C1047.49+483.645+1036.61+482.219+1027.39+486.724C1013.22+493.644+997.127+496.567+981.432+495.069C979.973+494.93+978.41+494.706+977.338+493.706C973.859+490.464+978.555+482.776+974.355+480.547C977.542+481.301+981.139+479.67+982.672+476.775C980.247+476.437+977.823+476.099+975.398+475.761C972.585+472.105+971.441+467.214+972.341+462.689C980.646+462.805+983.287+451.623+983.242+443.317C983.082+413.669+982.922+384.021+982.761+354.373C982.722+347.119+981.842+338.412+975.385+335.105C975.72+326.853+976.055+318.602+976.39+310.351C976.456+308.727+976.591+306.939+977.744+305.794C979.57+303.981+982.601+304.875+985.055+305.648C995.849+309.05+1008.1+307.489+1017.7+301.49C1019.15+305.456+1019.21+309.915+1017.87+313.921C1040.91+319.495+1064.5+322.766+1088.18+323.668C1094.22+323.898+1094.67+332.693+1093.14+338.535C1092.51+340.918+1091.67+343.577+1089.47+344.683C1088.04+345.401+1086.35+345.282+1084.76+345.146C1074.51+344.27+1064.25+343.395+1054+342.519C1066.3+345.125+1078.38+348.749+1090.08+353.344C1067.15+353.349+1044.5+348.744+1022.03+344.158C1017.43+343.219+1015.24+349.585+1015.06+354.275C1013.74+388.858+1014.76+423.531+1018.11+457.977C1023.89+457.155+1029.67+456.333+1035.45+455.511C1041.66+454.629+1048.65+453.26+1051.99+447.958C1055.22+442.837+1053.32+435.451+1048.49+431.8C1043.66+428.148+1036.7+428.048+1031.28+430.728M1047.19+403.982C1044.58+403.994+1041.97+404.006+1039.36+404.018C1037.91+404.025+1036+404.438+1035.91+405.88C1035.82+407.43+1037.91+407.991+1039.46+408.016C1041.77+408.052+1044.08+408.088+1046.38+408.125C1048.31+408.155+1051.03+407.184+1050.41+405.363C1050.01+404.178+1048.45+403.976+1047.19+403.982M1001.19+457.918C1003.18+456.926+1001.28+453.136+999.299+454.128C997.315+455.12+999.209+458.91+1001.19+457.918Z" opacity="1" fill="#ff7555"/>
<path d="M490.527+499.272C491.218+485.84+490.448+472.333+488.233+459.067C485.846+472.193+485.238+485.642+486.431+498.93C480.998+501.363+474.496+501.276+469.13+498.697C476.256+481.986+465.669+463.435+455.501+448.379C442.268+428.785+429.03+409.184+415.022+390.136C414.33+427.068+413.637+464+412.945+500.933C411.599+502.683+408.568+501.963+407.324+500.14C406.08+498.317+406.102+495.944+406.169+493.738C406.607+479.391+407.044+465.044+407.482+450.697C402.092+465.944+399.718+482.251+400.536+498.402C395.092+500.215+389.35+502.05+383.716+500.966C378.082+499.882+372.784+494.756+373.661+489.086C383.607+424.795+387.841+359.62+386.296+294.583C393.918+297.031+401.54+299.48+409.162+301.929C413.054+303.179+417.075+304.502+420.106+307.245C423.138+309.988+424.909+314.571+423.175+318.273C417.057+331.329+425.314+346.274+433.282+358.29C446.007+377.48+458.733+396.671+471.459+415.861C468.942+383.166+466.426+350.472+463.91+317.777C463.682+314.816+463.488+311.675+464.863+309.043C466.237+306.411+469.805+304.695+472.281+306.334C471.054+316.38+471.977+326.684+474.971+336.353C476.64+329.121+476.907+321.569+475.753+314.238C474.796+308.159+478.965+302.2+484.297+299.128C489.63+296.056+495.927+295.252+502.035+294.508C498.247+360.309+501.02+426.485+510.299+491.738C510.894+495.916+507.092+499.692+502.976+500.625C498.86+501.558+494.59+500.411+490.527+499.272M439.866+384.019C437.929+383.713+438.217+386.966+439.39+388.537C448.571+400.838+457.752+413.139+466.933+425.44C467.644+426.391+468.413+427.389+469.523+427.812C470.633+428.236+472.16+427.786+472.442+426.632C472.666+425.715+472.054+424.823+471.475+424.076C461.42+411.098+451.364+398.119+441.308+385.141C440.926+384.647+440.483+384.116+439.866+384.019M471.93+457.935C470.823+452.684+468.639+447.661+465.555+443.269C463.673+440.59+461.467+438.151+459.107+435.882C457.375+438.592+459.102+442.111+460.81+444.836C463.878+449.729+467.095+454.777+471.93+457.935M427.801+359.887C427.854+355.067+424.983+350.331+420.686+348.147C420.633+352.967+423.503+357.703+427.801+359.887Z" opacity="1" fill="#ff7555"/>
<path d="M611.192+441.958C599.058+441.515+586.908+441.496+574.773+441.901C567.828+460.872+560.882+479.843+553.937+498.814C550.64+497.349+551.238+492.546+552.387+489.126C556.498+476.883+560.609+464.641+564.72+452.399C557.782+466.254+550.844+480.108+543.905+493.962C538.803+491.884+533.701+489.806+528.6+487.728C526.947+487.055+525.138+486.233+524.445+484.589C523.888+483.267+524.211+481.757+524.564+480.367C527.462+468.992+531.974+458.028+537.925+447.909C534.582+447.555+531.24+447.201+527.897+446.846C528.781+436.324+529.665+425.802+530.549+415.28C530.671+413.829+530.84+412.265+531.818+411.187C534.049+408.727+538.01+410.658+541.316+410.969C549.028+411.694+553.83+403.012+556.523+395.749C566.579+368.625+576.636+341.501+586.692+314.378C587.319+312.689+588.04+310.879+589.565+309.922C591.015+309.012+592.854+309.088+594.558+309.245C605.842+310.285+616.914+313.577+626.933+318.873C620.424+324.178+617.804+333.133+618.171+341.522C618.538+349.911+621.482+357.945+624.392+365.822C627.612+374.537+630.833+383.253+634.053+391.968C635.791+396.673+637.635+401.543+641.222+405.047C644.81+408.551+650.679+410.259+654.939+407.611C657.972+416.568+657.151+426.76+652.724+435.117C654.184+435.785+654.878+437.433+655.442+438.936C660.572+452.605+665.703+466.274+670.833+479.943C671.311+481.215+671.786+482.65+671.234+483.892C670.654+485.198+669.164+485.792+667.815+486.263C660.566+488.79+653.316+491.317+646.066+493.845C641.998+477.311+637.483+459.946+625.639+447.713C630.013+461.316+634.387+474.918+638.762+488.52C639.444+490.641+640.131+492.912+639.53+495.057C638.93+497.202+636.464+498.967+634.462+497.989C629.246+481.327+624.03+464.664+618.814+448.002C618.236+446.154+617.561+444.171+615.971+443.066C614.608+442.12+612.85+442.019+611.192+441.958M595.658+386.185C595.063+386.472+594.753+387.125+594.488+387.73C591.884+393.68+589.279+399.629+586.674+405.579C586.262+406.52+585.856+407.641+586.377+408.527C587.02+409.624+588.586+409.602+589.848+409.44C594.373+408.861+598.899+408.282+603.424+407.703C604.325+407.588+605.381+407.362+605.742+406.529C606.023+405.881+605.751+405.14+605.48+404.488C603.279+399.198+601.077+393.908+598.876+388.619C598.294+387.219+597.023+385.527+595.658+386.185M597.46+314C594.573+315.278+593.219+318.54+592.133+321.505C588.988+330.09+585.844+338.675+582.699+347.26C582.31+348.322+581.917+349.477+582.246+350.56C582.575+351.642+583.985+352.436+584.877+351.74C585.247+351.451+585.433+350.992+585.604+350.554C589.326+341.004+593.048+331.454+596.77+321.904C597.763+319.357+598.741+316.414+597.46+314M579.004+436.088C585.651+435.258+592.297+434.428+598.944+433.598C600.955+433.347+599.867+429.796+597.846+429.653C595.825+429.51+594.124+431.042+592.254+431.821C590.384+432.601+587.454+431.911+587.555+429.887C587.146+431.59+584.993+432.185+583.249+432.029C581.505+431.872+579.696+431.297+578.053+431.905C576.411+432.512+575.54+435.141+577.096+435.944C577.672+436.241+578.361+436.168+579.004+436.088M543.285+422.194C545.399+421.99+547.357+420.594+548.241+418.663C543.608+417.574+538.719+417.592+534.094+418.714C535.941+421.634+539.921+422.994+543.168+421.814L543.285+422.194Z" opacity="1" fill="#ff7555"/>
<path d="M867.249+497.948C864.834+498.752+861.65+497.186+861.555+494.643C849.078+499.388+834.957+499.675+822.297+495.441C822.879+486.431+823.461+477.42+824.043+468.41C824.313+464.239+826.709+458.531+830.642+459.947C835.532+422.393+836.056+384.272+832.201+346.597C830.412+329.115+829.886+311.505+830.63+293.947C843.303+296.503+855.74+300.227+867.732+305.056C866.519+308.029+868.569+311.53+871.406+313.034C874.243+314.539+877.607+314.555+880.818+314.502C902.864+314.136+924.883+312.175+946.647+308.639C950.644+307.99+955.461+307.572+958.032+310.701C950.409+358.705+949.103+407.709+954.156+456.051C959.639+458.568+963.401+464.447+963.388+470.48C963.376+476.513+959.59+482.377+954.097+484.871C956.294+486.18+959.024+486.559+961.494+485.897C961.645+487.294+961.797+488.692+961.948+490.089C957.789+493.835+953.29+497.747+947.755+498.583C942.221+499.419+935.635+495.599+935.796+490.003C933.128+491.18+931.569+494.432+932.324+497.248C927.343+498.157+922.243+498.412+917.196+498.005C916.085+495.72+915.767+493.058+916.307+490.576C903.486+489.514+890.559+489.744+877.784+491.261C873.316+491.792+867.815+493.484+867.249+497.948M870.919+459.884C883.488+460.26+896.071+460.177+908.634+459.637C912.944+459.451+918.522+458.043+918.803+453.739C921.092+418.636+920.568+383.351+917.239+348.332C917.177+347.687+917.09+346.986+916.632+346.527C916.108+346.001+915.28+345.969+914.537+345.97C900.21+345.989+885.882+346.008+871.554+346.028C870.474+346.029+869.261+346.086+868.527+346.878C867.92+347.533+867.829+348.5+867.771+349.391C865.43+384.956+865.348+420.669+867.523+456.245C867.592+457.385+867.744+458.678+868.665+459.353C869.297+459.818+870.135+459.86+870.919+459.884M882.21+325.338C883.006+326.496+884.772+325.75+886.071+325.212C887.823+324.486+889.759+324.37+891.653+324.263C904.948+323.507+918.239+322.675+931.525+321.768C934.063+321.594+936.993+321.193+938.322+319.024C936.686+317.533+934.217+317.557+932.007+317.681C916.386+318.557+900.801+320.069+885.303+322.21C883.549+322.452+881.207+323.878+882.21+325.338M906.647+480.408C894.299+479.476+881.822+480.275+869.694+482.773C869.278+482.859+868.84+482.958+868.531+483.248C867.132+484.563+869.969+486.174+871.881+486.014C879.328+485.388+886.775+484.763+894.222+484.137C898.606+483.769+903.307+483.274+906.647+480.408M862.457+458.998C862.22+455.899+861.982+452.8+861.745+449.701C857.981+452.368+856.82+458.09+859.245+462.015C860.244+461.016+861.244+460.016+862.243+459.017M927.127+351.856C928.228+351.164+929.383+350.413+929.948+349.242C930.513+348.071+930.176+346.367+928.95+345.935C927.666+345.483+926.296+346.737+926.094+348.083C925.892+349.429+926.484+350.753+927.061+351.986M857.251+485.877C858.644+486.17+860.211+486.414+861.396+485.625C862.582+484.837+862.654+482.583+861.267+482.261C859.667+483.236+858.068+484.21+856.469+485.185M938.161+485.712C937.109+483.574+933.639+483.259+932.22+485.174C933.697+486.082+935.543+486.368+937.226+485.95L938.161+485.712Z" opacity="1" fill="#ff7555"/>
</g>
</svg>
